<?xml version="1.0" encoding="utf-8"?>
<!-- Generator: Adobe Illustrator 16.0.0, SVG Export Plug-In . SVG Version: 6.00 Build 0)  -->
<!DOCTYPE svg PUBLIC "-//W3C//DTD SVG 1.1//EN" "http://www.w3.org/Graphics/SVG/1.1/DTD/svg11.dtd">
<svg version="1.1" id="图层_1" xmlns="http://www.w3.org/2000/svg" xmlns:xlink="http://www.w3.org/1999/xlink" x="0px" y="0px"
	 width="200px" height="200px" viewBox="0 0 200 200" enable-background="new 0 0 200 200" xml:space="preserve">
<g display="none">
	
		<radialGradient id="SVGID_1_" cx="778.1221" cy="-4382.5918" r="90.5257" gradientTransform="matrix(0.6945 0 0 0.1087 -441.0469 634.1089)" gradientUnits="userSpaceOnUse">
		<stop  offset="0.0057" style="stop-color:#C5C8CB"/>
		<stop  offset="0.4138" style="stop-color:#DEE0E2"/>
		<stop  offset="1" style="stop-color:#FFFFFF"/>
	</radialGradient>
	<path display="inline" fill="url(#SVGID_1_)" d="M162.869,157.243c0,5.436-28.145,9.844-62.87,9.844
		c-34.721,0-62.868-4.408-62.868-9.844c0-5.438,28.147-9.838,62.868-9.838C134.725,147.405,162.869,151.805,162.869,157.243z"/>
	<g display="inline">
		
			<radialGradient id="SVGID_2_" cx="67.0718" cy="89.2065" r="100.7415" gradientTransform="matrix(1.007 -0.0273 0.0273 1.007 13.8623 -0.1567)" gradientUnits="userSpaceOnUse">
			<stop  offset="0" style="stop-color:#F16734"/>
			<stop  offset="1" style="stop-color:#8B2C24"/>
		</radialGradient>
		<path fill="url(#SVGID_2_)" d="M105.242,53.917c0,0-78.143-17.244-55.21,60.316c18.468,62.465,45.871,32.205,57.509,37.684
			C153.924,173.753,193.113,24.961,105.242,53.917z"/>
		<path fill="#82201E" d="M146.852,58.185c17.586,32.08-10.896,102.878-44.125,87.236c-8.524-4.011-27.524,10.009-42.643-6.769
			c16.463,26.462,38.025,8.824,47.457,13.265C143.266,168.735,173.854,85.246,146.852,58.185z"/>
		<path fill-rule="evenodd" clip-rule="evenodd" fill="#EE9385" d="M118.785,53.172c0,0,18.881-4.479,28.621,12.918
			C157.143,83.487,138.141,50.302,118.785,53.172z"/>
		
			<radialGradient id="SVGID_3_" cx="69.5825" cy="61.2095" r="34.1292" gradientTransform="matrix(0.9991 -0.0271 0.0273 1.007 23.0352 -0.5195)" gradientUnits="userSpaceOnUse">
			<stop  offset="0" style="stop-color:#F0924E"/>
			<stop  offset="1" style="stop-color:#8B2C24"/>
		</radialGradient>
		<path fill="url(#SVGID_3_)" d="M111.16,60.932c0.064,2.43-5.043,4.543-11.413,4.714c-6.367,0.175-11.58-1.659-11.648-4.092
			c-0.062-2.434,5.04-4.544,11.409-4.715C105.879,56.664,111.09,58.497,111.16,60.932z"/>
		<path fill="#82201E" d="M83.153,58.818c0,0,12.546,14.031,29.386-0.153C112.539,58.665,103.613,80.301,83.153,58.818z"/>
		<path fill="#AA725B" d="M116.977,45.956l-5.957-5.642c0,0-9.857,13.803-13.872,24.389c0.68-0.044,1.372-0.126,2.084-0.255
			C102.559,58.764,108.262,51.151,116.977,45.956z"/>
		<path fill="#C38754" d="M116.121,42.353c0.039,1.601,2.455,3.56,0.855,3.603c-1.602,0.042-5.342-0.103-5.385-1.707
			c-0.041-1.598-2.174-3.892-0.572-3.936S116.074,40.751,116.121,42.353z"/>
		
			<radialGradient id="SVGID_4_" cx="75.6899" cy="64.6396" r="29.7601" gradientTransform="matrix(1.007 -0.0273 0.0273 1.007 13.8623 -0.1567)" gradientUnits="userSpaceOnUse">
			<stop  offset="0" style="stop-color:#B4D45A"/>
			<stop  offset="1" style="stop-color:#00AB4D"/>
		</radialGradient>
		<path fill="url(#SVGID_4_)" d="M97.235,56.136c0,0-30.914,18.573-40.605-21.196L97.235,56.136z"/>
		
			<radialGradient id="SVGID_5_" cx="76.1904" cy="58.1025" r="39.1186" gradientTransform="matrix(1.007 -0.0273 0.0273 1.007 13.8623 -0.1567)" gradientUnits="userSpaceOnUse">
			<stop  offset="0" style="stop-color:#B4D45A"/>
			<stop  offset="1" style="stop-color:#00AB4D"/>
		</radialGradient>
		<path fill="url(#SVGID_5_)" d="M56.63,34.94c0,0,58.466-11.719,40.605,21.196L56.63,34.94z"/>
		<path fill-rule="evenodd" clip-rule="evenodd" fill="#EE9385" d="M71.042,111.026c0,0-30.189-35.1-5.354-44.91
			C90.528,56.308,47.124,72.073,71.042,111.026z"/>
		<path fill="#82201E" d="M102.191,141.378c0,0,13.227,5.713,22.594-0.659c9.365-6.374,23.064-33.33,16.672-31.212
			C136.131,111.274,141.223,139.022,102.191,141.378z"/>
	</g>
</g>
<g>
	
		<radialGradient id="SVGID_6_" cx="752.7852" cy="-4284.438" r="73.3372" gradientTransform="matrix(0.6945 0 0 0.1087 -441.0469 634.1089)" gradientUnits="userSpaceOnUse">
		<stop  offset="0.0057" style="stop-color:#C5C8CB"/>
		<stop  offset="0.4138" style="stop-color:#DEE0E2"/>
		<stop  offset="1" style="stop-color:#FFFFFF"/>
	</radialGradient>
	<path fill="url(#SVGID_6_)" d="M133.212,168.006c0,4.401-22.798,7.973-50.93,7.973c-28.127,0-50.931-3.571-50.931-7.973
		c0-4.406,22.804-7.972,50.931-7.972C110.414,160.034,133.212,163.6,133.212,168.006z"/>
	<g>
		<g>
			<path fill="#85C455" d="M150.099,36.299c-0.32,3.875,1.067,7.524-0.404,9.96c-1.469,2.435-3.343,3.862-5.268,3.704
				c-1.922-0.16-3.532-1.875-4.585-4.519c-1.051-2.647,3.166-8.203,3.485-12.08c0.319-3.876-3.314-5.336-1.844-7.773
				c1.473-2.435,4.104-1.838,6.03-1.679c1.921,0.16,2.774-0.149,3.825,2.495C152.387,29.053,150.417,32.423,150.099,36.299z"/>
			<path fill="#62BA46" d="M149.31,25.287l-0.737-0.049l0.034,0.003l-0.706-0.07c-2.104-0.219-2.894-0.129-3.456,0.831
				c-0.095,0.166-0.141,0.236,0.548,1.434c0.744,1.305,1.77,3.093,1.554,5.699c-0.172,2.118-1.153,4.395-2.096,6.592
				c-0.637,1.486-1.828,4.255-1.552,4.977c0.772,2.024,1.851,3.285,2.886,3.371c1.037,0.087,2.31-0.98,3.405-2.849
				c0.566-0.972,0.429-2.642,0.268-4.573c-0.121-1.457-0.263-3.109-0.121-4.83c0.142-1.727,0.552-3.332,0.913-4.748
				c0.478-1.88,0.89-3.501,0.488-4.555c-0.369-0.964-0.584-1.151-0.595-1.16C150.053,25.327,149.62,25.304,149.31,25.287z"/>
			<path fill="#FFD600" d="M149.854,37.891c5.505,2.617,7.584,13.048,4.493,26.626c-3.098,13.579-11.368,30.303-26.57,45.506
				c-15.206,15.204-33.072,24.867-48.213,29.65c-15.142,4.782-23.705,3.402-28.015-0.907c-4.306-4.308-0.75-9.112,11.541-17.922
				c12.293-8.812,29.462-20.349,44.662-35.551c15.206-15.203,21.241-29.188,25.721-38.306
				C137.952,37.871,140.878,33.62,149.854,37.891z"/>
			<path fill="#F2CA00" d="M50.675,137.72c0.242,0.353,0.53,0.702,0.875,1.046c4.31,4.31,12.873,5.689,28.015,0.907
				c15.141-4.783,33.007-14.446,48.213-29.65c15.202-15.203,23.473-31.927,26.57-45.506c2.89-12.683,1.264-22.617-3.446-26.004
				C143.229,116.713,80.136,133.945,50.675,137.72z"/>
			<path fill="#FFED00" d="M133.474,46.987c-4.479,9.118-10.515,23.103-25.721,38.306c-15.2,15.202-32.369,26.738-44.662,35.551
				c-6.444,4.619-10.484,8.137-12.25,11.059c20.302-7.054,77.302-32.094,95.198-95.408
				C139.919,35.079,137.248,39.307,133.474,46.987z"/>
			<path fill="#CAAA04" d="M53.511,139.457c0,0,3.021,3.712,3.651-0.002c0.631-3.712-4.044-11.861-5.928-7.309
				C49.353,136.699,53.511,139.457,53.511,139.457z"/>
			<path fill="#A88D00" d="M53.7,132.651c0,0,2.433,8.421,0.659,7.306c-2.932-1.85-4.071-1.217-3.724-5.455
				C50.982,130.266,53.286,131.052,53.7,132.651z"/>
			<path fill="#8B7600" d="M51.27,135.092L51.27,135.092c-0.323,2.381,0.049,2.56,1.281,3.145l1.228,0.64l0.102,0.038
				c0.275-0.25-0.008-2.672-0.634-5.282c-0.099-0.485-0.464-0.821-0.832-0.772C51.875,132.936,51.447,133.77,51.27,135.092z"/>
			<path fill="#614500" d="M51.479,135.926L51.479,135.926c-0.194,1.439,0.033,1.546,0.774,1.897l0.741,0.388l0.061,0.025
				c0.168-0.153-0.004-1.613-0.38-3.194c-0.061-0.29-0.281-0.495-0.503-0.466C51.85,134.621,51.59,135.129,51.479,135.926z"/>
		</g>
		<g>
			<path fill="#85C455" d="M148.255,37.037c-0.747,3.585,0.129,7.156-1.53,9.265s-3.576,3.225-5.353,2.855
				c-1.784-0.374-3.089-2.165-3.767-4.759c-0.678-2.592,3.909-7.303,4.656-10.888c0.748-3.587-2.477-5.377-0.819-7.482
				c1.659-2.109,4.05-1.247,5.829-0.874c1.78,0.371,2.614,0.182,3.289,2.776C151.238,30.524,149.004,33.449,148.255,37.037z"/>
			<path fill="#62BA46" d="M148.796,26.645l-0.684-0.127l0.029,0.005l-0.653-0.146c-1.937-0.449-2.69-0.456-3.322,0.374
				c-0.115,0.146-0.162,0.206,0.343,1.407c0.546,1.306,1.297,3.097,0.791,5.51c-0.409,1.961-1.586,3.974-2.724,5.922
				c-0.771,1.318-2.201,3.766-2.027,4.473c0.487,1.983,1.352,3.288,2.311,3.486c0.956,0.201,2.273-0.648,3.515-2.269
				c0.642-0.841,0.704-2.418,0.776-4.245c0.054-1.376,0.117-2.936,0.449-4.532c0.334-1.596,0.904-3.05,1.404-4.335
				c0.66-1.698,1.236-3.169,0.979-4.2c-0.229-0.944-0.413-1.144-0.417-1.152C149.484,26.77,149.084,26.699,148.796,26.645z"/>
			<path fill="#FFD600" d="M147.847,38.496c4.84,3.087,5.579,13.08,1.11,25.421c-4.468,12.336-14.143,27.018-30.12,39.47
				c-15.978,12.455-33.803,19.418-48.519,22.137c-14.713,2.719-22.559,0.434-26.088-4.096c-3.531-4.527,0.352-8.607,12.867-15.422
				c12.517-6.813,29.908-15.612,45.883-28.065c15.98-12.453,23.246-24.832,28.489-32.835
				C136.719,37.097,139.942,33.464,147.847,38.496z"/>
			<path fill="#F2CA00" d="M43.53,120.348c0.186,0.359,0.414,0.718,0.7,1.08c3.529,4.529,11.375,6.814,26.088,4.096
				c14.716-2.719,32.541-9.682,48.519-22.137c15.978-12.452,25.652-27.134,30.12-39.47c4.176-11.526,3.805-21.004-0.208-24.718
				C132.508,111.434,71.514,120.235,43.53,120.348z"/>
			<path fill="#FFED00" d="M131.47,45.105c-5.243,8.003-12.509,20.382-28.489,32.835c-15.975,12.453-33.366,21.251-45.883,28.065
				c-6.563,3.572-10.747,6.396-12.738,8.922c19.802-4.24,76.008-21.052,100.078-78.18C138.877,34.716,135.89,38.357,131.47,45.105z"
				/>
			<path fill="#CAAA04" d="M45.98,122.301c0,0,2.396,3.822,3.413,0.422c1.021-3.396-2.407-11.559-4.694-7.52
				C42.414,119.242,45.98,122.301,45.98,122.301z"/>
			<path fill="#A88D00" d="M46.945,115.961c0,0,1.298,8.152-0.229,6.906c-2.528-2.068-3.664-1.609-2.848-5.533
				C44.684,113.412,46.747,114.414,46.945,115.961z"/>
			<path fill="#8B7600" d="M44.392,117.958L44.392,117.958c-0.577,2.191-0.25,2.4,0.832,3.091l1.072,0.74l0.091,0.049
				c0.287-0.201,0.303-2.501,0.025-5.015c-0.039-0.466-0.343-0.821-0.694-0.816C45.208,116.011,44.71,116.742,44.392,117.958z"/>
			<path fill="#614500" d="M44.49,118.764L44.49,118.764c-0.346,1.322-0.149,1.451,0.507,1.864l0.646,0.452l0.056,0.025
				c0.171-0.122,0.183-1.51,0.011-3.029c-0.02-0.279-0.202-0.494-0.413-0.492C44.985,117.587,44.686,118.029,44.49,118.764z"/>
		</g>
		<g>
			<path fill="#85C455" d="M153.034,35.644c0.176,3.884,2.022,7.324,0.877,9.928c-1.147,2.605-2.822,4.261-4.749,4.349
				c-1.932,0.086-3.75-1.409-5.129-3.896c-1.378-2.487,2.087-8.538,1.909-12.423c-0.179-3.884-3.967-4.869-2.817-7.474
				c1.143-2.603,3.829-2.348,5.76-2.438c1.926-0.085,2.732-0.502,4.114,1.985C154.381,28.163,152.856,31.756,153.034,35.644z"/>
			<path fill="#62BA46" d="M150.842,24.82l-0.735,0.048l0.03-0.001l-0.71,0.022c-2.107,0.052-2.884,0.242-3.317,1.264
				c-0.073,0.179-0.11,0.254,0.727,1.354c0.907,1.201,2.152,2.839,2.271,5.455c0.101,2.122-0.58,4.503-1.237,6.805
				c-0.441,1.556-1.268,4.453-0.9,5.133c1.023,1.911,2.257,3.022,3.294,2.973c1.039-0.045,2.164-1.266,3.014-3.262
				c0.438-1.035,0.088-2.673-0.318-4.567c-0.311-1.43-0.659-3.049-0.739-4.777c-0.082-1.729,0.121-3.374,0.295-4.826
				c0.235-1.922,0.435-3.587-0.101-4.574c-0.485-0.914-0.726-1.071-0.738-1.077C151.583,24.768,151.155,24.8,150.842,24.82z"/>
			<path fill="#FFD600" d="M152.999,37.253c5.793,1.889,9.193,11.967,7.861,25.833c-1.329,13.863-7.393,31.508-20.523,48.533
				c-13.133,17.022-29.614,28.894-44.02,35.576c-14.407,6.683-23.073,6.409-27.899,2.688c-4.822-3.723-1.911-8.941,9.15-19.255
				c11.062-10.312,26.613-23.951,39.742-40.976c13.136-17.025,17.329-31.667,20.606-41.281
				C141.19,38.756,143.548,34.168,152.999,37.253z"/>
			<path fill="#F2CA00" d="M67.413,148.96c0.29,0.317,0.619,0.626,1.005,0.925c4.826,3.721,13.492,3.994,27.899-2.688
				c14.405-6.683,30.887-18.554,44.02-35.576c13.131-17.025,19.194-34.67,20.523-48.533c1.242-12.95-1.642-22.596-6.747-25.35
				C156.516,116.275,96.148,141.444,67.413,148.96z"/>
			<path fill="#FFED00" d="M137.917,48.373c-3.277,9.614-7.471,24.256-20.606,41.281c-13.129,17.024-28.68,30.664-39.742,40.976
				c-5.8,5.408-9.355,9.412-10.735,12.538c19.23-9.594,72.562-41.729,82.201-106.813C142.783,35.741,140.676,40.268,137.917,48.373z
				"/>
			<path fill="#CAAA04" d="M70.446,150.318c0,0,3.472,3.297,3.624-0.467c0.15-3.764-5.529-11.248-6.813-6.49
				C65.975,148.115,70.446,150.318,70.446,150.318z"/>
			<path fill="#A88D00" d="M69.764,143.547c0,0,3.492,8.039,1.594,7.157c-3.147-1.455-4.192-0.686-4.393-4.931
				C66.766,141.524,69.152,142.012,69.764,143.547z"/>
			<path fill="#8B7600" d="M67.667,146.275L67.667,146.275c-0.012,2.404,0.377,2.531,1.674,2.954l1.3,0.479l0.104,0.027
				c0.244-0.284-0.348-2.652-1.302-5.161c-0.165-0.467-0.565-0.755-0.927-0.657C67.991,144.061,67.671,144.943,67.667,146.275z"/>
			<path fill="#614500" d="M67.984,147.077L67.984,147.077c-0.005,1.451,0.229,1.528,1.009,1.784l0.788,0.289l0.062,0.016
				c0.148-0.174-0.211-1.602-0.789-3.117c-0.095-0.283-0.339-0.455-0.557-0.396C68.18,145.736,67.989,146.271,67.984,147.077z"/>
		</g>
		<g>
			<path fill="#85C455" d="M147.966,35.451c-0.975,3.157-0.494,6.438-2.163,8.189c-1.669,1.751-3.483,2.591-5.049,2.106
				c-1.569-0.486-2.592-2.206-2.978-4.594c-0.386-2.387,4.134-6.225,5.11-9.377c0.979-3.161-1.766-5.04-0.099-6.791
				c1.669-1.751,3.745-0.772,5.311-0.288c1.565,0.485,2.329,0.386,2.712,2.774C151.202,29.857,148.946,32.293,147.966,35.451z"/>
			<path fill="#62BA46" d="M149.336,26.168l-0.6-0.174l0.025,0.008l-0.571-0.188c-1.702-0.567-2.376-0.64-3.021,0.054
				c-0.112,0.121-0.161,0.171,0.191,1.292c0.38,1.22,0.9,2.891,0.239,5.016c-0.531,1.724-1.762,3.43-2.951,5.083
				c-0.8,1.116-2.298,3.194-2.199,3.843c0.27,1.825,0.933,3.067,1.776,3.328c0.843,0.262,2.097-0.388,3.348-1.737
				c0.649-0.702,0.84-2.113,1.062-3.746c0.167-1.229,0.355-2.627,0.789-4.03c0.437-1.406,1.071-2.663,1.627-3.774
				c0.744-1.469,1.384-2.741,1.243-3.687c-0.128-0.87-0.275-1.063-0.279-1.073C149.946,26.338,149.593,26.242,149.336,26.168z"/>
			<path fill="#FFD600" d="M147.474,36.728c4.086,3.181,3.895,12.221-1.167,22.92c-5.063,10.695-15,23.052-30.41,32.874
				c-15.409,9.818-32.008,14.551-45.452,15.736c-13.447,1.186-20.295-1.531-23.081-5.899c-2.778-4.367,1.053-7.698,12.874-12.751
				c11.817-5.051,28.181-11.468,43.593-21.288c15.406-9.819,22.986-20.315,28.38-27.055
				C137.603,34.521,140.809,31.535,147.474,36.728z"/>
			<path fill="#F2CA00" d="M46.829,101.326c0.139,0.34,0.313,0.684,0.534,1.032c2.786,4.368,9.634,7.085,23.081,5.899
				c13.444-1.186,30.043-5.918,45.452-15.736c15.41-9.822,25.347-22.179,30.41-32.874c4.729-9.996,5.204-18.536,1.919-22.214
				C127.485,100.911,71.972,103.611,46.829,101.326z"/>
			<path fill="#FFED00" d="M132.21,41.264c-5.394,6.74-12.974,17.236-28.38,27.055c-15.412,9.82-31.775,16.237-43.593,21.288
				c-6.199,2.648-10.193,4.826-12.198,6.926c18.139-2.123,70.041-12.421,96.525-61.666C139.746,32.569,136.754,35.583,132.21,41.264
				z"/>
			<path fill="#CAAA04" d="M48.865,103.291c0,0,1.822,3.635,3.026,0.67c1.21-2.965-1.175-10.583-3.571-7.152
				C45.92,100.239,48.865,103.291,48.865,103.291z"/>
			<path fill="#A88D00" d="M50.272,97.68c0,0,0.469,7.434-0.794,6.183c-2.095-2.072-3.151-1.757-2.086-5.209
				C48.457,95.199,50.222,96.276,50.272,97.68z"/>
			<path fill="#8B7600" d="M47.807,99.257L47.807,99.257c-0.705,1.918-0.429,2.132,0.486,2.845l0.9,0.756l0.073,0.053
				c0.276-0.158,0.49-2.221,0.451-4.502c0.007-0.42-0.236-0.765-0.551-0.791C48.707,97.58,48.197,98.192,47.807,99.257z"/>
			<path fill="#614500" d="M47.828,99.988L47.828,99.988c-0.423,1.158-0.259,1.289,0.296,1.718l0.545,0.459l0.045,0.029
				c0.163-0.097,0.291-1.341,0.27-2.719c0.003-0.255-0.142-0.462-0.332-0.478C48.376,98.974,48.065,99.344,47.828,99.988z"/>
		</g>
		<g>
			<path fill="#85C455" d="M153.696,36.293c-0.691,3.229,0.078,6.457-1.427,8.35c-1.511,1.892-3.24,2.888-4.847,2.543
				c-1.605-0.347-2.774-1.968-3.367-4.312c-0.599-2.343,3.561-6.565,4.257-9.796c0.696-3.229-2.203-4.862-0.7-6.754
				c1.51-1.89,3.665-1.098,5.267-0.754c1.603,0.347,2.354,0.181,2.948,2.524C156.424,30.438,154.396,33.061,153.696,36.293z"/>
			<path fill="#62BA46" d="M154.24,26.927l-0.609-0.125l0.023,0.005l-0.589-0.136c-1.744-0.411-2.423-0.423-3.002,0.321
				c-0.1,0.131-0.145,0.184,0.305,1.27c0.487,1.184,1.156,2.8,0.687,4.977c-0.381,1.765-1.453,3.573-2.494,5.324
				c-0.699,1.183-2.004,3.382-1.851,4.02c0.428,1.793,1.201,2.974,2.064,3.16c0.863,0.185,2.054-0.573,3.18-2.03
				c0.585-0.756,0.651-2.177,0.728-3.821c0.058-1.241,0.121-2.649,0.429-4.085c0.308-1.44,0.83-2.747,1.288-3.902
				c0.609-1.531,1.135-2.854,0.911-3.782c-0.202-0.855-0.367-1.037-0.372-1.046C154.863,27.041,154.502,26.976,154.24,26.927z"/>
			<path fill="#FFD600" d="M153.323,37.608c4.35,2.809,4.959,11.826,0.86,22.933c-4.096,11.101-12.902,24.291-27.381,35.435
				c-14.48,11.146-30.597,17.329-43.882,19.699c-13.289,2.372-20.35,0.267-23.509-3.836c-3.158-4.104,0.365-7.762,11.689-13.84
				c11.328-6.077,27.062-13.915,41.54-25.063c14.479-11.143,21.1-22.268,25.875-29.459
				C143.291,36.285,146.221,33.026,153.323,37.608z"/>
			<path fill="#F2CA00" d="M58.787,110.862c0.166,0.325,0.371,0.649,0.625,0.977c3.159,4.103,10.22,6.208,23.509,3.836
				c13.285-2.37,29.401-8.554,43.882-19.699c14.479-11.144,23.285-24.333,27.381-35.435c3.828-10.373,3.546-18.925-0.052-22.295
				C139.091,103.307,84.028,110.912,58.787,110.862z"/>
			<path fill="#FFED00" d="M138.517,43.477c-4.775,7.191-11.396,18.316-25.875,29.459C98.164,84.084,82.43,91.922,71.102,97.999
				c-5.936,3.187-9.724,5.708-11.534,7.979c17.881-3.717,68.666-18.572,90.689-69.966C145.258,34.148,142.54,37.415,138.517,43.477z
				"/>
			<path fill="#CAAA04" d="M60.985,112.637c0,0,2.138,3.461,3.077,0.398c0.941-3.061-2.105-10.439-4.191-6.807
				C57.785,109.855,60.985,112.637,60.985,112.637z"/>
			<path fill="#A88D00" d="M61.892,106.924c0,0,1.128,7.36-0.243,6.227c-2.272-1.879-3.297-1.471-2.538-5.006
				C59.866,104.611,61.72,105.528,61.892,106.924z"/>
			<path fill="#8B7600" d="M59.576,108.712L59.576,108.712c-0.531,1.973-0.237,2.161,0.737,2.789l0.964,0.675l0.079,0.043
				c0.26-0.178,0.287-2.254,0.046-4.52c-0.032-0.42-0.301-0.744-0.617-0.74C60.324,106.963,59.871,107.617,59.576,108.712z"/>
			<path fill="#614500" d="M59.664,109.438L59.664,109.438c-0.32,1.19-0.142,1.305,0.441,1.686l0.586,0.408l0.048,0.027
				c0.158-0.112,0.172-1.362,0.027-2.734c-0.018-0.252-0.183-0.445-0.371-0.445C60.118,108.379,59.844,108.777,59.664,109.438z"/>
		</g>
		<g>
			<path fill="#85C455" d="M157.957,40.525c0.347,3.99,2.388,7.454,1.316,10.188c-1.072,2.729-2.728,4.501-4.706,4.673
				c-1.987,0.167-3.919-1.292-5.443-3.8c-1.526-2.5,1.79-8.878,1.448-12.87c-0.346-3.993-4.29-4.847-3.216-7.578
				c1.073-2.727,3.851-2.579,5.833-2.751c1.98-0.171,2.791-0.627,4.315,1.876C159.033,32.767,157.613,36.531,157.957,40.525z"/>
			<path fill="#62BA46" d="M155.253,29.472l-0.755,0.079l0.029-0.002l-0.729,0.049c-2.17,0.145-2.96,0.373-3.363,1.442
				c-0.069,0.188-0.1,0.265,0.803,1.366c0.983,1.196,2.337,2.835,2.568,5.521c0.186,2.182-0.412,4.662-0.993,7.058
				c-0.39,1.622-1.12,4.639-0.712,5.322c1.132,1.926,2.448,3.02,3.513,2.923c1.067-0.089,2.177-1.394,2.966-3.482
				c0.409-1.083-0.019-2.755-0.52-4.689c-0.375-1.458-0.806-3.112-0.955-4.884c-0.155-1.779-0.016-3.482,0.104-4.982
				c0.161-1.99,0.298-3.712-0.291-4.709c-0.544-0.919-0.797-1.071-0.804-1.078C156.017,29.39,155.575,29.438,155.253,29.472z"/>
			<path fill="#FFD600" d="M157.987,42.182c6.047,1.707,9.966,11.943,9.166,26.272c-0.795,14.33-6.304,32.749-19.117,50.821
				s-29.291,30.978-43.85,38.458c-14.551,7.479-23.485,7.558-28.607,3.926c-5.125-3.632-2.342-9.126,8.622-20.206
				c10.959-11.074,26.406-25.764,39.22-43.838c12.813-18.071,16.528-33.322,19.502-43.359
				C145.895,44.223,148.129,39.398,157.987,42.182z"/>
			<path fill="#F2CA00" d="M74.505,160.746c0.31,0.318,0.662,0.621,1.074,0.913c5.122,3.632,14.057,3.553,28.607-3.926
				c14.559-7.48,31.036-20.386,43.85-38.458s18.322-36.492,19.117-50.821c0.744-13.385-2.625-23.194-7.996-25.822
				C164.892,123.398,103.776,151.817,74.505,160.746z"/>
			<path fill="#FFED00" d="M142.923,54.256c-2.974,10.037-6.688,25.288-19.502,43.359c-12.813,18.074-28.261,32.764-39.22,43.838
				c-5.747,5.81-9.242,10.08-10.533,13.355c19.402-10.676,72.975-45.973,80.198-113.382
				C147.407,41.048,145.426,45.801,142.923,54.256z"/>
			<path fill="#CAAA04" d="M77.684,162.021c0,0,3.713,3.247,3.71-0.632c-0.002-3.882-6.159-11.351-7.285-6.398
				C72.983,159.941,77.684,162.021,77.684,162.021z"/>
			<path fill="#A88D00" d="M76.701,155.076c0,0,3.926,8.132,1.934,7.308c-3.297-1.372-4.343-0.532-4.726-4.9
				C73.529,153.12,76.007,153.521,76.701,155.076z"/>
			<path fill="#8B7600" d="M74.652,157.974L74.652,157.974c0.088,2.476,0.494,2.593,1.847,2.974l1.361,0.438l0.104,0.022
				c0.239-0.301-0.467-2.717-1.555-5.259c-0.185-0.477-0.614-0.753-0.979-0.638C74.898,155.68,74.606,156.6,74.652,157.974z"/>
			<path fill="#614500" d="M75.016,158.787L75.016,158.787c0.051,1.492,0.297,1.564,1.11,1.793l0.822,0.266l0.066,0.014
				c0.144-0.184-0.285-1.639-0.94-3.176c-0.111-0.285-0.371-0.455-0.592-0.386C75.16,157.4,74.984,157.954,75.016,158.787z"/>
		</g>
		<g>
			<path fill="#85C455" d="M151.859,37.316c-0.149,3.301,1.146,6.355-0.029,8.474c-1.171,2.113-2.716,3.383-4.358,3.311
				c-1.638-0.077-3.06-1.483-4.04-3.695c-0.969-2.213,2.434-7.066,2.581-10.368c0.153-3.303-2.979-4.43-1.806-6.545
				c1.174-2.113,3.426-1.69,5.066-1.615c1.639,0.073,2.352-0.214,3.327,2C153.575,31.09,152.01,34.013,151.859,37.316z"/>
			<path fill="#62BA46" d="M150.842,27.988l-0.622-0.02l0.022,0.004l-0.6-0.037c-1.792-0.121-2.464-0.019-2.908,0.812
				c-0.079,0.148-0.112,0.208,0.509,1.203c0.677,1.084,1.603,2.569,1.502,4.792c-0.083,1.804-0.843,3.765-1.576,5.663
				c-0.495,1.282-1.417,3.67-1.161,4.274c0.722,1.697,1.676,2.733,2.559,2.774c0.883,0.039,1.932-0.909,2.802-2.529
				c0.451-0.841,0.282-2.253,0.081-3.889c-0.149-1.235-0.318-2.633-0.251-4.101c0.066-1.471,0.361-2.847,0.625-4.062
				c0.346-1.61,0.646-3.003,0.272-3.881c-0.345-0.81-0.536-0.96-0.545-0.968C151.475,28.002,151.109,27.994,150.842,27.988z"/>
			<path fill="#FFD600" d="M151.705,38.677c4.753,2.048,6.85,10.841,4.65,22.471c-2.201,11.627-8.7,26.091-21.138,39.483
				c-12.431,13.389-27.301,22.153-40.012,26.694c-12.71,4.537-20.023,3.634-23.817,0.111c-3.795-3.522-0.926-7.714,9.235-15.586
				c10.161-7.869,24.383-18.206,36.815-31.597c12.433-13.39,17.117-25.454,20.636-33.337
				C141.593,39.034,143.943,35.331,151.705,38.677z"/>
			<path fill="#F2CA00" d="M70.61,126.576c0.215,0.291,0.475,0.577,0.778,0.861c3.794,3.522,11.107,4.426,23.817-0.111
				c12.711-4.541,27.581-13.306,40.012-26.694c12.438-13.392,18.937-27.856,21.138-39.483c2.055-10.866,0.362-19.25-3.747-21.978
				C148.553,105.824,95.511,122.444,70.61,126.576z"/>
			<path fill="#FFED00" d="M138.075,46.917c-3.519,7.884-8.203,19.947-20.636,33.337c-12.433,13.391-26.654,23.728-36.815,31.597
				c-5.331,4.128-8.648,7.24-10.058,9.776c17.021-6.625,64.645-29.684,77.85-84.019C143.175,36.602,141.04,40.275,138.075,46.917z"
				/>
			<path fill="#CAAA04" d="M73.074,127.961c0,0,2.681,3.06,3.1-0.115c0.417-3.172-3.811-9.946-5.265-6.02
				C69.454,125.75,73.074,127.961,73.074,127.961z"/>
			<path fill="#A88D00" d="M73.022,122.178c0,0,2.326,7.072,0.788,6.182c-2.551-1.478-3.494-0.902-3.335-4.516
				C70.639,120.235,72.62,120.829,73.022,122.178z"/>
			<path fill="#8B7600" d="M71.029,124.322L71.029,124.322c-0.194,2.035,0.125,2.176,1.189,2.633l1.063,0.504l0.087,0.03
				c0.223-0.219-0.094-2.269-0.704-4.468c-0.1-0.408-0.422-0.682-0.734-0.628C71.477,122.475,71.141,123.196,71.029,124.322z"/>
			<path fill="#614500" d="M71.235,125.027L71.235,125.027c-0.117,1.229,0.081,1.312,0.72,1.59l0.641,0.303l0.056,0.018
				c0.134-0.133-0.056-1.371-0.427-2.697c-0.06-0.247-0.251-0.412-0.443-0.381C71.506,123.908,71.304,124.344,71.235,125.027z"/>
		</g>
	</g>
</g>
</svg>
