<?xml version="1.0" encoding="utf-8"?>
<!-- Generator: Adobe Illustrator 16.0.0, SVG Export Plug-In . SVG Version: 6.00 Build 0)  -->
<!DOCTYPE svg PUBLIC "-//W3C//DTD SVG 1.1//EN" "http://www.w3.org/Graphics/SVG/1.1/DTD/svg11.dtd">
<svg version="1.1" id="图层_1" xmlns="http://www.w3.org/2000/svg" xmlns:xlink="http://www.w3.org/1999/xlink" x="0px" y="0px"
	 width="200px" height="200px" viewBox="0 0 200 200" enable-background="new 0 0 200 200" xml:space="preserve">
<g>
	
		<radialGradient id="SVGID_1_" cx="774.5654" cy="-4275.1748" r="73.3386" gradientTransform="matrix(0.6945 0 0 0.1087 -441.0469 634.1089)" gradientUnits="userSpaceOnUse">
		<stop  offset="0.0057" style="stop-color:#C5C8CB"/>
		<stop  offset="0.4138" style="stop-color:#DEE0E2"/>
		<stop  offset="1" style="stop-color:#FFFFFF"/>
	</radialGradient>
	<path fill="url(#SVGID_1_)" d="M148.338,169.011c0,4.404-22.799,7.975-50.93,7.975c-28.127,0-50.93-3.57-50.93-7.975
		s22.803-7.97,50.93-7.97C125.539,161.041,148.338,164.606,148.338,169.011z"/>
	<g>
		<g>
			<g>
				<path fill="#00A94F" d="M84.661,64.544c0,0-1.659-3.275,2.245-7.433c3.901-4.163,3.653-4.095,3.351-4.014l-0.672,0.177
					c-0.304,0.086-0.424-0.073-0.268-0.343l1.379-2.388c0.156-0.275,0.037-0.431-0.268-0.349l-0.187,0.05
					c-0.302,0.086-0.556-0.109-0.563-0.423l-0.026-1.609c-0.005-0.314-0.257-0.504-0.561-0.424l-0.591,0.153
					c-0.304,0.087-0.619-0.096-0.701-0.399l-0.288-1.077c-0.079-0.304-0.344-0.391-0.587-0.189l-2.236,1.837
					c-0.244,0.201-0.509,0.114-0.589-0.188l-0.289-1.078c-0.081-0.303-0.396-0.48-0.701-0.401L82.6,46.586
					c-0.303,0.081-0.616-0.104-0.699-0.408l-0.395-1.477c-0.083-0.303-0.352-0.396-0.604-0.2L79.732,45.4
					c-0.25,0.189-0.616,0.144-0.814-0.097l-0.316-0.395c-0.198-0.241-0.565-0.286-0.814-0.097l-1.029,0.778
					c-0.251,0.195-0.678,0.218-0.953,0.063l-0.646-0.373c-0.27-0.161-0.425-0.04-0.346,0.263l0.179,0.67
					c0.082,0.31-0.083,0.44-0.365,0.304l-1.955-0.951c-0.283-0.138-0.645-0.023-0.802,0.246l-0.312,0.544
					c-0.159,0.274-0.537,0.435-0.841,0.36l-2.229-0.561c-0.306-0.075-0.683,0.085-0.84,0.354c0,0-0.303,0.527,1.279,3.219
					l-1.812,0.337c-0.272-0.154,0.67,0.23,0.862,0.476c0,0,3.28,2.715,2.573,3.94c0,0-3.11,0.663-5.31-2.383l-0.481,0.836
					c-0.157,0.275-0.531,0.413-0.829,0.315l-1.201-0.406c-0.294-0.103-0.659,0.023-0.805,0.274
					c-0.147,0.252-0.516,0.527-0.819,0.606l-1.153,0.316c-0.306,0.08-0.38,0.333-0.166,0.567l0.816,0.893
					c0.212,0.229,0.137,0.487-0.167,0.567l-0.994,0.27c-0.305,0.079-0.484,0.394-0.403,0.698l0.07,0.269
					c0.081,0.303-0.107,0.509-0.416,0.452l-1.049-0.177c-0.31-0.052-0.496,0.154-0.414,0.464l0.2,0.744
					c0.083,0.309-0.072,0.682-0.348,0.836l-2.761,1.568c-0.272,0.155-0.429,0.528-0.347,0.832l0.265,0.996
					c0.082,0.303,0.019,0.773-0.139,1.048l-0.193,0.337c-0.161,0.275-0.245,0.659-0.193,0.86c0.055,0.2-0.098,0.532-0.34,0.727
					l-2.16,1.81c-0.24,0.206-0.189,0.442,0.112,0.533l4.154,1.214c0.302,0.085,0.423,0.378,0.263,0.652l-0.254,0.442
					c-0.158,0.274-0.03,0.526,0.283,0.561l3.597,0.417c0.311,0.035,0.781-0.08,1.044-0.251c0,0,7.017-4.632,7.97-1.083
					c0.952,3.552-5.488,2.091-5.488,2.091c-0.309-0.068-0.787,0-1.062,0.143l-2.93,1.558c-0.276,0.149-0.436,0.516-0.354,0.818
					l0.05,0.19c0.08,0.302-0.102,0.619-0.406,0.698l-0.267,0.075c-0.303,0.08-0.329,0.274-0.056,0.429l0.491,0.286
					c0.272,0.162,0.281,0.431,0.018,0.607l-2.273,1.522c-0.261,0.173-0.231,0.402,0.069,0.5l2.753,0.905
					c0.298,0.097,0.415,0.399,0.257,0.669l-0.431,0.756c-0.16,0.27-0.04,0.425,0.266,0.343l0.59-0.159
					c0.303-0.08,0.39,0.057,0.191,0.298l-1.424,1.764c-0.198,0.24-0.101,0.458,0.211,0.481l1.494,0.086
					c0.313,0.017,0.366,0.188,0.115,0.383l-1.03,0.779c-0.25,0.188-0.208,0.412,0.095,0.497l0.775,0.225
					c0.301,0.085,0.375,0.349,0.16,0.578l-1.771,1.918c-0.214,0.229-0.139,0.487,0.164,0.567l1.136,0.315
					c0.304,0.08,0.424,0.371,0.265,0.647l-0.845,1.459c-0.155,0.274-0.039,0.43,0.267,0.349l1.317-0.355
					c0.303-0.08,0.469,0.098,0.372,0.395l-0.74,2.241c-0.099,0.297,0.042,0.669,0.317,0.83l0.031,0.016
					c0.272,0.155,0.428,0.533,0.348,0.837c0,0-0.708,2.703-0.211,4.564c0,0,4.967,0.139,6.777-1.821l0.284,1.065
					c0.082,0.305,0.364,0.406,0.623,0.234l2.64-1.792c0.26-0.178,0.615-0.11,0.789,0.155l0.534,0.812
					c0.174,0.258,0.492,0.286,0.708,0.057l2.044-2.177c0.214-0.228,0.556-0.217,0.758,0.023l1.043,1.242
					c0.202,0.241,0.561,0.265,0.793,0.058l2.563-2.313c0.236-0.213,0.649-0.251,0.921-0.099l3.205,1.856
					c0.272,0.155,0.623,0.057,0.779-0.212l0.905-1.568c0.159-0.27,0.545-0.481,0.856-0.458l0.443,0.024
					c0.313,0.022,0.504-0.212,0.421-0.516l-0.503-1.885c-0.082-0.303,0.1-0.619,0.403-0.698l0.269-0.075
					c0.303-0.08,0.413-0.36,0.242-0.63c0,0-4.29-6.676-1.1-8.652c3.188-1.976,2.997,9.614,2.997,9.614
					c-0.005,0.315,0.121,0.344,0.277,0.075l0.491-0.853c0.159-0.27,0.397-0.258,0.531,0.022l1.719,3.654
					c0.135,0.28,0.373,0.292,0.531,0.018l0.371-0.648c0.157-0.269,0.353-0.24,0.436,0.064l0.352,1.312
					c0.082,0.309,0.318,0.359,0.529,0.13l0.767-0.857c0.211-0.236,0.496-0.195,0.636,0.085c0,0,1.526,3.109,3.336,3.195
					c1.809,0.091,1.167-2.312,1.167-2.312c-0.081-0.304,0.101-0.618,0.403-0.699l0.296-0.081c0.305-0.08,0.486-0.395,0.403-0.698
					l-0.265-0.996c-0.083-0.303,0.1-0.618,0.404-0.699l0.348-0.091c0.302-0.086,0.562-0.407,0.574-0.722l0.055-1.391
					c0.012-0.314,0.268-0.636,0.572-0.722l0.43-0.115c0.307-0.081,0.574-0.401,0.6-0.716l0.194-2.314
					c0.026-0.31,0.295-0.636,0.599-0.716l0.832-0.223c0.305-0.081,0.486-0.395,0.404-0.705l-0.482-1.797
					c-0.082-0.304-0.02-0.773,0.14-1.042l0.195-0.344c0.155-0.274,0.062-0.624-0.21-0.779l-0.238-0.144
					c-0.273-0.153-0.562-0.531-0.643-0.835l-0.225-0.831c-0.08-0.303,0.102-0.618,0.406-0.699l2.12-0.566
					c0.306-0.085,0.377-0.338,0.163-0.567l-1.157-1.243c-0.216-0.228-0.144-0.48,0.161-0.568l0.027-0.004
					c0.303-0.08,0.336-0.292,0.077-0.47l-1.8-1.214c-0.262-0.176-0.225-0.39,0.078-0.469l0.105-0.029
					c0.305-0.08,0.305-0.218,0.004-0.303c0,0-6.19-1.759-5.961-3.808c0.229-2.051,4.934-0.683,4.934-0.683
					c0.301,0.091,0.679-0.057,0.836-0.331l0.136-0.235c0.156-0.275,0.537-0.556,0.845-0.624l0.76-0.166
					c0.309-0.069,0.494-0.373,0.412-0.676l-0.032-0.109c-0.079-0.303,0.112-0.533,0.427-0.51c0,0,2.249,0.156,2.604-0.458
					c0.354-0.612-2.171-2.188-2.171-2.188c-0.269-0.165-0.356-0.521-0.2-0.795l0.551-0.957c0.156-0.269,0.041-0.578-0.256-0.675
					l-1.201-0.407c-0.295-0.103-0.412-0.405-0.254-0.675l0.434-0.75c0.156-0.275,0.035-0.556-0.271-0.63l-0.923-0.224
					c-0.306-0.074-0.622-0.383-0.704-0.688l-0.158-0.59c-0.079-0.302-0.404-0.571-0.717-0.601l-0.361-0.022
					c-0.313-0.028-0.638-0.298-0.719-0.602l-0.029-0.103c-0.08-0.303-0.396-0.486-0.7-0.406l-0.59,0.16
					c-0.304,0.081-0.569-0.108-0.589-0.423l-0.008-0.132c-0.02-0.315-0.279-0.485-0.574-0.378l-0.819,0.293
					c-0.297,0.108-0.604-0.052-0.686-0.355l-0.094-0.35c-0.081-0.302-0.395-0.486-0.699-0.405l-0.833,0.223
					c-0.304,0.08-0.619-0.098-0.699-0.4l-0.288-1.078c-0.082-0.302-0.362-0.406-0.623-0.234l-1.397,0.944
					c-0.259,0.172-0.537,0.082-0.614-0.207c-0.077-0.29-0.29-0.314-0.473-0.056l-0.404,0.561c-0.181,0.257-0.556,0.339-0.827,0.183
					l-0.034-0.017c-0.271-0.16-0.457-0.033-0.41,0.276C92.573,54.622,93.926,63.617,84.661,64.544z"/>
				<path fill="#54B848" d="M101.383,96.722c-0.081-0.304,0.101-0.618,0.403-0.699l0.296-0.081c0.305-0.08,0.486-0.395,0.403-0.698
					l-0.265-0.996c-0.083-0.303,0.1-0.618,0.404-0.699l0.348-0.091c0.302-0.086,0.562-0.407,0.574-0.722l0.055-1.391
					c0.012-0.314,0.268-0.636,0.572-0.722l0.43-0.115c0.307-0.081,0.574-0.401,0.6-0.716l0.194-2.314
					c0.026-0.31,0.295-0.636,0.599-0.716l0.832-0.223c0.305-0.081,0.486-0.395,0.404-0.705l-0.482-1.797
					c-0.082-0.304-0.02-0.773,0.14-1.042l0.195-0.344c0.155-0.274,0.062-0.624-0.21-0.779l-0.238-0.144
					c-0.273-0.153-0.562-0.531-0.643-0.835l-0.225-0.831c-0.08-0.303,0.102-0.618,0.406-0.699l2.12-0.566
					c0.306-0.085,0.377-0.338,0.163-0.567l-1.157-1.243c-0.216-0.228-0.144-0.48,0.161-0.568l0.027-0.004
					c0.303-0.08,0.336-0.292,0.077-0.47l-1.8-1.214c-0.262-0.176-0.225-0.39,0.078-0.469l0.105-0.029
					c0.305-0.08,0.305-0.218,0.004-0.303c0,0-6.19-1.759-5.961-3.808c0.229-2.051,4.934-0.683,4.934-0.683
					c0.301,0.091,0.679-0.057,0.836-0.331l0.136-0.235c0.156-0.275,0.537-0.556,0.845-0.624l0.76-0.166
					c0.309-0.069,0.494-0.373,0.412-0.676l-0.032-0.109c-0.079-0.303,0.112-0.533,0.427-0.51c0,0,2.249,0.156,2.604-0.458
					c0.354-0.612-2.171-2.188-2.171-2.188c-0.269-0.165-0.356-0.521-0.2-0.795l0.551-0.957c0.156-0.269,0.041-0.578-0.256-0.675
					l-1.201-0.407c-0.295-0.103-0.412-0.405-0.254-0.675l0.434-0.75c0.156-0.275,0.035-0.556-0.271-0.63l-0.923-0.224
					c-0.306-0.074-0.622-0.383-0.704-0.688l-0.158-0.59c-0.079-0.302-0.404-0.571-0.717-0.601l-0.361-0.022
					c-0.313-0.028-0.638-0.298-0.719-0.602l-0.029-0.103c-0.08-0.303-0.396-0.486-0.7-0.406l-0.59,0.16
					c-0.304,0.081-0.569-0.108-0.589-0.423l-0.008-0.132c-0.02-0.315-0.279-0.485-0.574-0.378l-0.819,0.293
					c-0.297,0.108-0.604-0.052-0.686-0.355l-0.094-0.35c-0.081-0.302-0.395-0.486-0.699-0.405l-0.833,0.223
					c-0.304,0.08-0.619-0.098-0.699-0.4l-0.288-1.078c-0.082-0.302-0.362-0.406-0.623-0.234l-1.397,0.944
					c-0.259,0.172-0.537,0.082-0.614-0.207c-0.077-0.29-0.29-0.314-0.473-0.056l-0.404,0.561c-0.181,0.257-0.556,0.339-0.827,0.183
					l-0.034-0.017c-0.271-0.16-0.457-0.033-0.41,0.276c0,0,1.257,8.371-6.971,9.792l-0.965,1.248c0,0-12.698,21.273-23.874,34.537
					c0.022,0.131,0.05,0.264,0.085,0.395c0,0,4.967,0.139,6.777-1.821l0.284,1.065c0.082,0.305,0.364,0.406,0.623,0.234l2.64-1.792
					c0.26-0.178,0.615-0.11,0.789,0.155l0.534,0.812c0.174,0.258,0.492,0.286,0.708,0.057l2.044-2.177
					c0.214-0.228,0.556-0.217,0.758,0.023l1.043,1.242c0.202,0.241,0.561,0.265,0.793,0.058l2.563-2.313
					c0.236-0.213,0.649-0.251,0.921-0.099l3.205,1.856c0.272,0.155,0.623,0.057,0.779-0.212l0.905-1.568
					c0.159-0.27,0.545-0.481,0.856-0.458l0.443,0.024c0.313,0.022,0.504-0.212,0.421-0.516l-0.503-1.885
					c-0.082-0.303,0.1-0.619,0.403-0.698l0.269-0.075c0.303-0.08,0.413-0.36,0.242-0.63c0,0-4.29-6.676-1.1-8.652
					c3.188-1.976,2.997,9.614,2.997,9.614c-0.005,0.315,0.121,0.344,0.277,0.075l0.491-0.853c0.159-0.27,0.397-0.258,0.531,0.022
					l1.719,3.654c0.135,0.28,0.373,0.292,0.531,0.018l0.371-0.648c0.157-0.269,0.353-0.24,0.436,0.064l0.352,1.312
					c0.082,0.309,0.318,0.359,0.529,0.13l0.767-0.857c0.211-0.236,0.496-0.195,0.636,0.085c0,0,1.526,3.109,3.336,3.195
					C102.025,99.125,101.383,96.722,101.383,96.722z"/>
				<path fill="#0DB04B" d="M101.281,79.593c0.124,2.6,2.514,8.515,0.926,10.623c-1.805,2.393-6.604,1.683-8.639,4.162
					c-0.218,0.271-0.401,0.54-0.562,0.82l0.252,0.539c0.135,0.28,0.373,0.292,0.531,0.018l0.371-0.648
					c0.157-0.269,0.353-0.24,0.436,0.064l0.352,1.312c0.082,0.309,0.318,0.359,0.529,0.13l0.767-0.857
					c0.211-0.236,0.496-0.195,0.636,0.085c0,0,1.526,3.109,3.336,3.195c1.809,0.091,1.167-2.312,1.167-2.312
					c-0.081-0.304,0.101-0.618,0.403-0.699l0.296-0.081c0.305-0.08,0.486-0.395,0.403-0.698l-0.265-0.996
					c-0.083-0.303,0.1-0.618,0.404-0.699l0.348-0.091c0.302-0.086,0.562-0.407,0.574-0.722l0.055-1.391
					c0.012-0.314,0.268-0.636,0.572-0.722l0.43-0.115c0.307-0.081,0.574-0.401,0.6-0.716l0.194-2.314
					c0.026-0.31,0.295-0.636,0.599-0.716l0.832-0.223c0.305-0.081,0.486-0.395,0.404-0.705l-0.482-1.797
					c-0.082-0.304-0.02-0.773,0.14-1.042l0.195-0.344c0.155-0.274,0.062-0.624-0.21-0.779l-0.238-0.144
					c-0.273-0.153-0.562-0.531-0.643-0.835l-0.225-0.831c-0.08-0.303,0.102-0.618,0.406-0.699l2.12-0.566
					c0.306-0.085,0.377-0.338,0.163-0.567l-1.157-1.243c-0.216-0.228-0.144-0.48,0.161-0.568l0.027-0.004
					c0.303-0.08,0.336-0.292,0.077-0.47l-1.8-1.214c-0.262-0.176-0.225-0.39,0.078-0.469l0.105-0.029
					c0.305-0.08,0.305-0.218,0.004-0.303c0,0-1.133-0.322-2.412-0.854C101.881,75.5,101.128,76.381,101.281,79.593z"/>
				<path fill="#00A551" d="M63.2,84.616c0.018-5.023,2.385-7.107,0.888-12.038c-0.699-0.085-1.193-0.201-1.193-0.201
					c-0.309-0.068-0.787,0-1.062,0.143l-2.93,1.558c-0.276,0.149-0.436,0.516-0.354,0.818l0.05,0.19
					c0.08,0.302-0.102,0.619-0.406,0.698l-0.267,0.075c-0.303,0.08-0.329,0.274-0.056,0.429l0.491,0.286
					c0.272,0.162,0.281,0.431,0.018,0.607l-2.273,1.522c-0.261,0.173-0.231,0.402,0.069,0.5l2.753,0.905
					c0.298,0.097,0.415,0.399,0.257,0.669l-0.431,0.756c-0.16,0.27-0.04,0.425,0.266,0.343l0.59-0.159
					c0.303-0.08,0.39,0.057,0.191,0.298l-1.424,1.764c-0.198,0.24-0.101,0.458,0.211,0.481l1.494,0.086
					c0.313,0.017,0.366,0.188,0.115,0.383l-1.03,0.779c-0.25,0.188-0.208,0.412,0.095,0.497l0.775,0.225
					c0.301,0.085,0.375,0.349,0.16,0.578l-1.771,1.918c-0.214,0.229-0.139,0.487,0.164,0.567l1.136,0.315
					c0.304,0.08,0.424,0.371,0.265,0.647l-0.845,1.459c-0.155,0.274-0.039,0.43,0.267,0.349l1.317-0.355
					c0.303-0.08,0.469,0.098,0.372,0.395l-0.74,2.241c-0.099,0.297,0.042,0.669,0.317,0.83l0.031,0.016
					c0.272,0.155,0.428,0.533,0.348,0.837c0,0-0.708,2.703-0.211,4.564c0,0,3.148,0.086,5.348-0.871
					c-0.137-0.709-0.267-1.35-0.318-1.717C65.239,93.462,63.182,89.323,63.2,84.616z"/>
				<path fill="#0DB04B" d="M104.836,60.662c-2.485,1.689-1.77,3.086-0.711,5.537c0.676,1.57,1.12,2.423,1.143,3.253
					c0.203-0.045,0.395-0.166,0.496-0.343l0.136-0.235c0.156-0.275,0.537-0.556,0.845-0.624l0.76-0.166
					c0.309-0.069,0.494-0.373,0.412-0.676l-0.032-0.109c-0.079-0.303,0.112-0.533,0.427-0.51c0,0,2.249,0.156,2.604-0.458
					c0.354-0.612-2.171-2.188-2.171-2.188c-0.269-0.165-0.356-0.521-0.2-0.795l0.551-0.957c0.156-0.269,0.041-0.578-0.256-0.675
					l-1.201-0.407c-0.295-0.103-0.412-0.405-0.254-0.675l0.434-0.75c0.078-0.137,0.087-0.281,0.036-0.396
					C106.813,59.643,105.803,60.008,104.836,60.662z"/>
				<path fill="#00A551" d="M59.621,61.274c0.881-1.421,4.235-2.131,5.678-2.731c2.103-0.871,8.051-2.228,8.179-4.45
					c0.124-2.21-4.573-4.798,0.494-5.468c1.417-0.184,3.699,1.249,5.269,1.403c2.82,0.27,5.668-0.528,8.446-0.86
					c0.449-0.057,1.167-0.211,1.977-0.464l-0.01-0.492c-0.005-0.314-0.257-0.504-0.561-0.424l-0.591,0.153
					c-0.304,0.087-0.619-0.096-0.701-0.399l-0.288-1.077c-0.079-0.304-0.344-0.391-0.587-0.189l-2.236,1.837
					c-0.244,0.201-0.509,0.114-0.589-0.188l-0.289-1.078c-0.081-0.303-0.396-0.48-0.701-0.401L82.6,46.586
					c-0.303,0.081-0.616-0.104-0.699-0.408l-0.395-1.477c-0.083-0.303-0.352-0.396-0.604-0.2L79.732,45.4
					c-0.25,0.189-0.616,0.144-0.814-0.097l-0.316-0.395c-0.198-0.241-0.565-0.286-0.814-0.097l-1.029,0.778
					c-0.251,0.195-0.678,0.218-0.953,0.063l-0.646-0.373c-0.27-0.161-0.425-0.04-0.346,0.263l0.179,0.67
					c0.082,0.31-0.083,0.44-0.365,0.304l-1.955-0.951c-0.283-0.138-0.645-0.023-0.802,0.246l-0.312,0.544
					c-0.159,0.274-0.537,0.435-0.841,0.36l-2.229-0.561c-0.306-0.075-0.683,0.085-0.84,0.354c0,0-0.303,0.527,1.279,3.219
					l-1.769,0.326c0.202,0.086,0.688,0.321,0.819,0.487c0,0,3.28,2.715,2.573,3.94c0,0-3.11,0.663-5.31-2.383l-0.481,0.836
					c-0.157,0.275-0.531,0.413-0.829,0.315l-1.201-0.406c-0.294-0.103-0.659,0.023-0.805,0.274
					c-0.147,0.252-0.516,0.527-0.819,0.606l-1.153,0.316c-0.306,0.08-0.38,0.333-0.166,0.567l0.816,0.893
					c0.212,0.229,0.137,0.487-0.167,0.567l-0.994,0.27c-0.305,0.079-0.484,0.394-0.403,0.698l0.07,0.269
					c0.081,0.303-0.107,0.509-0.416,0.452l-1.049-0.177c-0.31-0.052-0.496,0.154-0.414,0.464l0.2,0.744
					c0.083,0.309-0.072,0.682-0.348,0.836l-2.761,1.568c-0.272,0.155-0.429,0.528-0.347,0.832l0.265,0.996
					c0.082,0.303,0.019,0.773-0.139,1.048l-0.193,0.337c-0.161,0.275-0.245,0.659-0.193,0.86c0.055,0.2-0.098,0.532-0.34,0.727
					l-2.16,1.81c-0.24,0.206-0.189,0.442,0.112,0.533l4.154,1.214c0.302,0.085,0.423,0.378,0.263,0.652l-0.254,0.442
					c-0.158,0.274-0.03,0.526,0.283,0.561l3.597,0.417c0.311,0.035,0.781-0.08,1.044-0.251c0,0,1.102-0.727,2.496-1.385
					c-0.985-1.398-2.172-1.765-3.769-3.54C60.246,64.664,58.517,63.05,59.621,61.274z"/>
				<path fill="#00A94F" d="M67.115,50.068l0.043-0.011C67.064,50.021,67.03,50.017,67.115,50.068z"/>
				<g>
					<path fill="#009D4D" d="M84.661,65.735c0,0-4.18-12.358-12.373-17.946c0,0,10.863,11.286,11.175,17.957
						c0,0-10.156-4.884-29.815,2.246c0,0,20.508-6.638,29.962-1.18c0,0-12.242,22.43-21.673,32.405c0,0,14.199-14.843,22.65-32.24
						c0,0,11.709,10.462,14.987,30.225c0,0-2.05-18.016-13.973-30.654c0,0,13.693-4.272,22.775-0.493
						C108.377,66.056,101.034,61.967,84.661,65.735z"/>
					<path fill="#009D4D" d="M82.208,60.107c0,0,5.412-6.649,4.287-10.852c0,0-0.9,7.77-4.559,9.837L82.208,60.107z"/>
					<path fill="#009D4D" d="M78.53,53.75c0,0,1.439-3.419,0.233-5.252c0,0,0.624,2.634-0.576,4.718L78.53,53.75z"/>
					<path fill="#009D4D" d="M78.807,64.509c0,0-7.15-7.57-14.241-8.223c0,0,7.207,1.449,12.614,8.017L78.807,64.509z"/>
					<path fill="#009D4D" d="M70.389,64.664c0,0-4.214-4.461-8.393-4.844c0,0,4.246,0.853,7.433,4.724L70.389,64.664z"/>
					<path fill="#009D4D" d="M79.317,65.219c0,0-2.604,1.976-6.626,3.26c0,0,3.604-0.578,8.552-3.196L79.317,65.219z"/>
					<path fill="#009D4D" d="M63.577,65.604c0,0-1.447,1.901-3.227,3.075c0,0,1.261-1.299,2.172-2.88L63.577,65.604z"/>
					<path fill="#009D4D" d="M82.33,71.33c0,0,4.609,10.863,2.363,22.179c0,0,1.44-12.228-2.88-21.251L82.33,71.33z"/>
					<path fill="#009D4D" d="M76.803,80.377c0,0,2.447,10.474,1.671,16.269c0,0-0.476-6.756-2.091-15.645L76.803,80.377z"/>
					<path fill="#009D4D" d="M80.737,71.886c0,0-10.256,1.013-20.827,5.578c0,0,18.179-5.704,20.348-4.759L80.737,71.886z"/>
					<path fill="#009D4D" d="M62.191,83.086c0,0,8.81-4.455,13.461-2.754l0.69-1.196C76.342,79.136,66.059,79.564,62.191,83.086z"/>
					<path fill="#009D4D" d="M71.846,86.236c0,0-5.096-0.045-9.595,2.571c0,0,8.628-3.149,9.014-1.706L71.846,86.236z"/>
					<path fill="#009D4D" d="M69.913,89.849c0,0,2.062,5.125,0.238,7.009c0,0,1.146-3.654-1.104-5.915L69.913,89.849z"/>
					<path fill="#009D4D" d="M87.982,69.303c0,0,13.055,2.674,19.201,7.937c0,0-7.937-5.051-18.537-7.083L87.982,69.303z"/>
					<path fill="#009D4D" d="M93.601,78.184c0,0,5.522,0.717,12.163,7.021c0,0-4.902-5.972-12.629-7.93L93.601,78.184z"/>
					<path fill="#009D4D" d="M96.926,86.22c0,0,3.69,1.792,6.001,4.958c0,0-4.014-3.716-5.679-3.973L96.926,86.22z"/>
					<path fill="#009D4D" d="M89.859,73.219c0,0-3.244,2.543-1.503,6.735c0,0-1.015-5.223,1.992-6.03L89.859,73.219z"/>
					<path fill="#009D4D" d="M90.491,64.653c0,0,2.43-7.342,6.412-8.406c0,0-4.679,3.55-5.221,8.251L90.491,64.653z"/>
					<path fill="#009D4D" d="M95.701,64.659c0,0,1.562,2.199,4.889,2.159c0,0-3.305-0.087-3.881-2.239L95.701,64.659z"/>
					<path fill="#009D4D" d="M101.672,64.355c0,0,0.839-2.238,2.975-1.797c0,0-2.092,0.446-2.027,1.917L101.672,64.355z"/>
					<path fill="#009D4D" d="M79.955,57.387c0,0-5.359,2.198-6.349-1.495c0,0,2.002,3.219,5.98,0.939L79.955,57.387z"/>
				</g>
				<g>
					<path fill="#72BE44" d="M84.187,65.764c0,0-4.18-12.357-12.374-17.947c0,0,10.864,11.293,11.176,17.958
						c0,0-10.154-4.879-29.815,2.244c0,0,20.507-6.636,29.962-1.178c0,0-12.241,22.43-21.674,32.406c0,0,14.2-14.843,22.651-32.24
						c0,0,11.708,10.463,14.986,30.223c0,0-2.052-18.014-13.971-30.647c0,0,13.693-4.271,22.775-0.498
						C107.903,66.084,100.558,61.996,84.187,65.764z"/>
					<path fill="#72BE44" d="M81.735,60.135c0,0,5.411-6.648,4.284-10.847c0,0-0.896,7.766-4.556,9.833L81.735,60.135z"/>
					<path fill="#72BE44" d="M78.056,53.785c0,0,1.439-3.425,0.232-5.251c0,0,0.625,2.634-0.577,4.718L78.056,53.785z"/>
					<path fill="#72BE44" d="M78.333,64.544c0,0-7.151-7.576-14.241-8.229c0,0,7.205,1.455,12.611,8.017L78.333,64.544z"/>
					<path fill="#72BE44" d="M69.915,64.7c0,0-4.215-4.461-8.395-4.851c0,0,4.248,0.859,7.435,4.725L69.915,64.7z"/>
					<path fill="#72BE44" d="M78.841,65.254c0,0-2.601,1.97-6.625,3.253c0,0,3.605-0.573,8.553-3.19L78.841,65.254z"/>
					<path fill="#72BE44" d="M63.103,65.639c0,0-1.447,1.895-3.228,3.075c0,0,1.262-1.307,2.173-2.888L63.103,65.639z"/>
					<path fill="#72BE44" d="M81.853,71.365c0,0,4.61,10.862,2.365,22.173c0,0,1.439-12.227-2.878-21.25L81.853,71.365z"/>
					<path fill="#72BE44" d="M76.328,80.412c0,0,2.446,10.468,1.671,16.263c0,0-0.474-6.757-2.089-15.644L76.328,80.412z"/>
					<path fill="#72BE44" d="M80.262,71.915c0,0-10.255,1.019-20.827,5.583c0,0,18.179-5.703,20.347-4.758L80.262,71.915z"/>
					<path fill="#72BE44" d="M61.717,83.116c0,0,8.81-4.456,13.459-2.754l0.691-1.197C75.868,79.165,65.585,79.599,61.717,83.116z"
						/>
					<path fill="#72BE44" d="M71.37,86.265c0,0-5.095-0.04-9.594,2.571c0,0,8.627-3.148,9.014-1.707L71.37,86.265z"/>
					<path fill="#72BE44" d="M69.437,89.885c0,0,2.062,5.118,0.237,7.008c0,0,1.15-3.658-1.102-5.922L69.437,89.885z"/>
					<path fill="#72BE44" d="M87.507,69.332c0,0,13.059,2.674,19.202,7.936c0,0-7.938-5.05-18.536-7.078L87.507,69.332z"/>
					<path fill="#72BE44" d="M93.126,78.212c0,0,5.522,0.717,12.165,7.027c0,0-4.904-5.979-12.631-7.937L93.126,78.212z"/>
					<path fill="#72BE44" d="M96.452,86.248c0,0,3.69,1.792,6.001,4.965c0,0-4.014-3.723-5.68-3.98L96.452,86.248z"/>
					<path fill="#72BE44" d="M89.384,73.248c0,0-3.245,2.55-1.502,6.735c0,0-1.016-5.221,1.992-6.03L89.384,73.248z"/>
					<path fill="#72BE44" d="M90.016,64.681c0,0,2.429-7.335,6.412-8.406c0,0-4.678,3.551-5.22,8.252L90.016,64.681z"/>
					<path fill="#72BE44" d="M95.227,64.688c0,0,1.562,2.205,4.89,2.165c0,0-3.308-0.092-3.884-2.245L95.227,64.688z"/>
					<path fill="#72BE44" d="M101.196,64.39c0,0,0.841-2.239,2.974-1.804c0,0-2.09,0.447-2.025,1.923L101.196,64.39z"/>
					<path fill="#72BE44" d="M79.481,57.415c0,0-5.358,2.2-6.349-1.495c0,0,2,3.224,5.981,0.94L79.481,57.415z"/>
				</g>
			</g>
			<g>
				<path fill="#72BE44" d="M89.679,73.266c0,0-3.248,2.548-1.503,6.734c0,0-1.014-5.223,1.992-6.024L89.679,73.266z M75.471,80.384
					l0.691-1.197c0,0-10.281,0.43-14.149,3.945C62.012,83.132,70.822,78.677,75.471,80.384z M71.085,87.147l0.582-0.865
					c0,0-5.1-0.041-9.597,2.57C62.07,88.853,70.696,85.704,71.085,87.147z M99.395,97.249c0,0-0.498-4.336-2.407-10.246l0.081,0.247
					c1.665,0.257,5.679,3.979,5.679,3.979c-2.312-3.173-6.002-4.965-6.002-4.965l0.059,0.177c-0.869-2.61-2.011-5.497-3.501-8.441
					l0.119,0.229c0,0,5.521,0.722,12.162,7.021c0,0-4.901-5.967-12.63-7.931l0.121,0.235c-1.282-2.474-2.809-4.977-4.63-7.382
					l0.025,0.034c10.598,2.028,18.534,7.078,18.534,7.078c-6.141-5.257-19.195-7.931-19.201-7.938
					c-0.749-0.932-1.536-1.855-2.382-2.748c0,0,13.695-4.272,22.777-0.498c0,0-1.85-1.031-5.758-1.581
					c-0.066-1.472,2.027-1.918,2.027-1.918c-2.132-0.436-2.972,1.792-2.976,1.803c-2.556-0.28-5.87-0.342-9.992,0.138
					c0.544-4.702,5.225-8.246,5.225-8.246c-3.984,1.064-6.413,8.401-6.413,8.401l0.059-0.012c-1.815,0.251-3.776,0.607-5.888,1.094
					c0,0-0.824-2.434-2.455-5.624l0,0c0,0,5.412-6.647,4.287-10.852c0,0-1.125,7.829-4.785,9.896l0.005,0.011
					c-0.9-1.678-2.007-3.51-3.318-5.28c0.377-0.973,1.36-3.876,0.369-5.388c0,0,0.319,2.863-0.711,4.93
					c-1.627-2.12-3.55-4.129-5.767-5.641c0,0,4.069,4.231,7.3,9.042c-3.979,2.284-5.981-0.935-5.981-0.935
					c0.989,3.683,6.333,1.495,6.349,1.495c1.879,2.887,3.394,5.926,3.507,8.356c0,0-1.565-0.751-4.655-1.238
					c0,0-7.151-7.57-14.244-8.217c0,0,7.208,1.442,12.614,8.01c-1.951-0.199-4.356-0.269-7.204-0.046
					c-1.162-1.116-4.582-4.122-7.978-4.431c0,0,4.078,0.818,7.24,4.495c-4.262,0.395-9.463,1.448-15.591,3.676
					c0,0,3.798-1.231,8.877-2.194c-0.911,1.575-2.175,2.88-2.175,2.88c1.778-1.174,3.223-3.069,3.229-3.074
					c4.958-0.871,10.906-1.42,15.725-0.378c-0.182,0.136-2.738,2.009-6.611,3.246c0,0,3.331-0.532,7.986-2.897
					c1.055,0.314,2.044,0.722,2.933,1.237c0,0-1.09,1.998-2.873,5.066c0,0-10.255,1.02-20.828,5.579c0,0,18.18-5.699,20.351-4.753
					c-4.301,7.354-11.953,19.767-18.321,26.508c0,0,3.036-3.179,7.142-8.316l-0.032,0.041c2.25,2.261,1.102,5.92,1.102,5.92
					c1.821-1.889-0.238-7.014-0.238-7.014l-0.047,0.057c2.082-2.646,4.392-5.744,6.693-9.163l-0.173,0.259
					c1.616,8.887,2.09,15.645,2.09,15.645c0.777-5.79-1.672-16.269-1.672-16.269l-0.2,0.303c1.786-2.657,3.566-5.497,5.232-8.453
					l-0.021,0.035c4.32,9.019,2.88,21.245,2.88,21.245c2.247-11.31-2.364-22.172-2.364-22.172l-0.024,0.04
					c0.795-1.444,1.56-2.909,2.283-4.398C84.407,67.024,96.116,77.487,99.395,97.249z M95.521,64.704c0,0,1.562,2.206,4.888,2.165
					c0,0-3.306-0.091-3.883-2.239L95.521,64.704z"/>
				<path fill="#9DCB3B" d="M84.117,56.66c-0.658,1.145-1.48,2.13-2.497,2.709l-0.166,0.091l-0.085-0.161
					c-1.03-1.912-2.142-3.682-3.303-5.251l-0.061-0.08l0.035-0.098c0.252-0.647,0.881-2.45,0.776-3.917
					c-0.027,1.024-0.189,2.428-0.776,3.607l-0.133,0.269l-0.185-0.239c-1.291-1.69-2.646-3.128-4.042-4.312
					c1.483,1.67,3.859,4.477,5.882,7.496l0.11,0.165L79.5,57.037c-1.573,0.904-3.035,1.087-4.346,0.544
					c-0.362-0.155-0.666-0.345-0.927-0.539c0.193,0.206,0.41,0.384,0.67,0.51c1.805,0.899,4.685-0.241,4.807-0.292l0.143-0.058
					l0.085,0.126c2.248,3.453,3.437,6.299,3.539,8.458l0.015,0.309l-0.282-0.131c-0.016-0.012-1.583-0.75-4.606-1.22l-0.062-0.011
					l-0.043-0.045c-0.057-0.063-4.573-4.793-9.917-7.043c2.53,1.186,5.796,3.218,8.568,6.585l0.288,0.35l-0.452-0.046
					c-2.231-0.23-4.644-0.241-7.171-0.046l-0.082,0.006l-0.061-0.058c-0.424-0.407-1.08-0.996-1.883-1.615
					c0.481,0.419,0.959,0.894,1.416,1.42l0.235,0.276l-0.359,0.033c-2.456,0.235-5.006,0.658-7.627,1.284
					c0.281-0.058,0.571-0.115,0.861-0.172l0.401-0.074l-0.208,0.354c-0.306,0.532-0.651,1.031-0.975,1.46
					c1.009-0.938,1.712-1.849,1.721-1.861l0.044-0.056l0.073-0.012c6.412-1.128,11.727-1.26,15.799-0.378l0.399,0.086l-0.328,0.246
					c-0.19,0.144-1.437,1.048-3.451,2.006c1.278-0.442,2.856-1.071,4.626-1.971l0.065-0.035l0.072,0.023
					c1.103,0.327,2.107,0.75,2.975,1.25l0.159,0.09l-0.086,0.161c-0.009,0.018-0.964,1.764-2.509,4.444
					c-0.121,0.2-0.242,0.416-0.369,0.635l-0.046,0.08l-0.097,0.007c-0.086,0.012-7.597,0.784-16.285,3.824
					c5.564-1.625,14.343-4.019,15.862-3.355l0.195,0.086l-0.108,0.176c-1.49,2.55-2.999,5.052-4.487,7.439l0,0l-0.122,0.194
					c-2.45,3.923-4.744,7.376-6.875,10.354c0.004,0.005,0.201,0.16,0.255,0.207c-0.003-0.074-0.011-0.185-0.011-0.185
					c1.483,1.49,1.552,3.521,1.403,4.823c0.551-2.183-0.825-5.669-0.844-5.716c0,0,0.086,0.017,0.172,0.029
					c-0.086-0.069-0.19-0.155-0.19-0.155c2.39-3.035,4.636-6.116,6.683-9.151l0.31,0.207c0,0-0.082,0.126-0.131,0.194
					c1.015,5.589,1.578,10.365,1.856,13.108c0.016-5.137-1.407-11.888-1.746-13.406c-0.079-0.056-0.245-0.165-0.245-0.165
					c1.675-2.491,3.226-4.965,4.62-7.381c0.204-0.355,0.407-0.709,0.604-1.066c0,0,0.273,0.154,0.308,0.178
					c0.001-0.051,0.003-0.132,0.003-0.132c2.503,5.235,3.077,11.58,3.117,15.989c0.28-9.025-2.905-16.67-2.942-16.762
					c0,0,0.127,0.012,0.226,0.017c-0.091-0.052-0.24-0.132-0.24-0.132c0.821-1.495,1.586-2.966,2.278-4.391l0.107-0.224l0.186,0.166
					c0.024,0.024,2.417,2.182,5.299,6.277l0.101,0.143l-0.14,0.108c-0.006,0.006-0.667,0.533-1.213,1.479
					c-0.03,0.051-0.06,0.107-0.09,0.16c0.341-0.567,0.81-0.957,1.387-1.167c-0.041-0.063-0.16-0.234-0.16-0.234l0.309-0.212
					l0.254,0.372h-0.001c0.02,0.029,0.043,0.057,0.043,0.057c1.535,2.256,3.29,5.229,4.903,8.848
					c-0.645-1.592-1.338-3.145-2.087-4.626l0.331-0.173c0,0,0.042,0.08,0.073,0.149c0.536,0.092,3.299,0.664,7.032,3.023
					c-1.996-1.385-4.535-2.76-7.492-3.539c-0.085,0.045-0.175,0.092-0.175,0.092c-1.375-2.657-2.928-5.131-4.613-7.354
					c0,0,0.264-0.2,0.285-0.217c-0.033-0.023-0.078-0.051-0.078-0.051c6.614,1.271,12.232,3.734,15.511,5.4
					c-6.518-3.848-16.135-5.865-16.249-5.881l-0.066-0.018l-0.042-0.051c-0.768-0.967-1.565-1.884-2.372-2.743l-0.205-0.218
					l0.286-0.086c0.043-0.018,4.61-1.42,10.142-1.901l0.104-0.012l0.063,0.087c0.001,0.004,0.018,0.023,0.039,0.051
					c-0.005-0.068-0.011-0.143-0.011-0.143s0.534-0.04,0.585-0.047l0,0h0.028l0,0c0.042-0.005,0.198-0.011,0.198-0.011
					c0.507-0.033,0.997-0.052,1.483-0.068c-2.045-0.035-4.209,0.087-6.477,0.349l-0.234,0.034l0.027-0.24
					c0.161-1.409,0.686-2.709,1.341-3.848c0.95-1.644,2.181-2.943,3.016-3.716c-1.364,0.813-2.5,2.336-3.363,3.825
					c-1.155,2.005-1.809,3.941-1.821,3.974c0,0-0.069-0.085-0.13-0.155c0.015,0.104,0.037,0.276,0.037,0.276
					c-1.894,0.263-3.872,0.624-5.873,1.087l-0.166,0.04l-0.052-0.166c-0.008-0.023-0.838-2.456-2.443-5.601l-0.056-0.109
					l0.075-0.091c0.026-0.03,1.196-1.484,2.324-3.437c1.058-1.833,2.074-4.101,2.074-6.052
					C85.969,52.031,85.311,54.592,84.117,56.66z M101.858,64.074c-0.114,0.201-0.174,0.35-0.187,0.384
					c0.195,0.017,0.387,0.041,0.582,0.063c-0.015-0.333,0.068-0.612,0.207-0.848c0.234-0.412,0.635-0.698,1.014-0.893
					C102.629,62.963,102.114,63.634,101.858,64.074z M96.343,64.831c0,0-0.41,0.029-0.44,0.034c0.197,0.206,0.526,0.516,0.986,0.813
					c-0.244-0.268-0.434-0.601-0.542-1.001c0,0-0.009-0.04-0.021-0.076C96.334,64.711,96.343,64.831,96.343,64.831z M87.879,77.057
					c0.03-0.253,0.072-0.504,0.129-0.756C87.949,76.535,87.906,76.788,87.879,77.057z M96.754,86.482
					c0.063,0.172,0.125,0.355,0.188,0.539c0.104-0.035,0.221-0.075,0.221-0.075s0.026,0.075,0.049,0.143
					c0.716,0.162,1.834,0.842,3.332,2.022C98.844,87.599,97.143,86.683,96.754,86.482z M71.01,79.954
					c1.573-0.223,3.106-0.219,4.375,0.206c0.082-0.143,0.275-0.481,0.442-0.767C75.084,79.439,73.206,79.582,71.01,79.954z
					 M64.007,82.021c1.334-0.556,3.164-1.236,5.077-1.694C67.309,80.715,65.492,81.259,64.007,82.021z M69.844,86.597
					c0.479-0.029,0.865,0.011,1.106,0.131c0.053,0.029,0.093,0.058,0.128,0.091c0.088-0.137,0.128-0.188,0.232-0.343
					C70.998,86.488,70.494,86.517,69.844,86.597z M67.083,87.089c0.001,0,0.006,0,0.011-0.005
					C67.09,87.089,67.085,87.089,67.083,87.089z M66.259,87.307c0.062-0.018,0.125-0.035,0.189-0.052
					C66.384,87.272,66.322,87.29,66.259,87.307z"/>
			</g>
		</g>
		<path fill="#BD805B" d="M71.249,54.958l72.132-20.655c0,0-3.627-7.255-1.814-10.514c1.814-3.264-71.044,25.374-71.044,25.374
			S73.967,52.238,71.249,54.958z"/>
		<path fill="#614028" d="M71.764,54.443l72.646-19.63c0.363,0.722-4.502-7.628-2.326-11.539
			c1.811-3.264-71.044,25.367-71.044,25.367S74.482,51.723,71.764,54.443z"/>
		<path fill="#BD805B" d="M141.566,23.789c1.814-3.264-71.044,25.374-71.044,25.374s1.365,1.22,1.699,2.8
			c14.471-5.435,49.944-18.325,69.56-21.744C141.108,28.01,140.668,25.411,141.566,23.789z"/>
		<path fill="#B77B26" d="M71.914,54.082c14.43-5.422,50.913-18.703,70.522-21.967c-0.219-0.567-0.448-1.214-0.654-1.896
			c-19.616,3.419-55.089,16.309-69.56,21.744C72.359,52.627,72.315,53.36,71.914,54.082z"/>
		<path fill="#9A681D" d="M71.249,54.958l72.132-20.655c0,0-0.445-0.893-0.945-2.188c-19.609,3.264-56.092,16.544-70.522,21.967
			C71.754,54.38,71.538,54.672,71.249,54.958z"/>
		<path fill="#9A681D" d="M107.494,83.264c0,0-18.197-22.591,1.283-42.072c0,0,7.327,0,3.664,3.665c0,0-19.02,17.705-0.959,34.426
			L107.494,83.264z"/>
		<path fill="#684404" d="M78.71,46.432c0,0,26.682-10.514,56.022-18.29L78.71,46.432z"/>
		<g>
			<path fill="#475484" d="M95.908,60.197c4.76,4.158,4.548,11.591-0.471,16.602c-5.018,5.01-12.943,5.697-17.702,1.54
				c-4.762-4.164-4.553-11.59,0.467-16.595C83.222,56.728,91.149,56.035,95.908,60.197z"/>
			<path fill="#5A73A6" d="M91.792,61.309c3.652,3.19,3.491,8.893-0.361,12.736c-3.851,3.842-9.932,4.374-13.582,1.186
				c-3.652-3.196-3.492-8.894,0.358-12.736C82.061,58.647,88.14,58.12,91.792,61.309z"/>
			<path fill="#7889B6" d="M88.979,62.122c2.704,2.36,2.583,6.575-0.266,9.42c-2.851,2.84-7.349,3.236-10.05,0.876
				c-2.704-2.364-2.586-6.579,0.263-9.425C81.775,60.151,86.275,59.757,88.979,62.122z"/>
		</g>
		<g>
			<path fill="#475484" d="M117.168,73.409c4.758,4.158,4.549,11.59-0.473,16.602c-5.02,5.01-12.943,5.697-17.704,1.54
				c-4.76-4.164-4.553-11.589,0.467-16.601C104.48,69.943,112.406,69.246,117.168,73.409z"/>
			<path fill="#5A73A6" d="M113.051,74.52c3.652,3.189,3.49,8.893-0.361,12.735c-3.853,3.843-9.932,4.37-13.583,1.186
				c-3.651-3.195-3.492-8.893,0.359-12.735C103.316,71.856,109.396,71.33,113.051,74.52z"/>
			<path fill="#7889B6" d="M110.239,75.328c2.698,2.364,2.581,6.58-0.271,9.425c-2.85,2.846-7.348,3.235-10.049,0.876
				c-2.702-2.365-2.583-6.58,0.265-9.425C103.035,73.362,107.535,72.968,110.239,75.328z"/>
		</g>
		<g>
			<path fill="#475484" d="M107.907,104.675c4.358,3.803,4.163,10.605-0.433,15.193c-4.594,4.581-11.847,5.217-16.204,1.408
				c-4.357-3.808-4.166-10.605,0.428-15.186C96.294,101.503,103.547,100.867,107.907,104.675z"/>
			<path fill="#5A73A6" d="M104.139,105.689c3.343,2.92,3.197,8.143-0.328,11.659c-3.529,3.516-9.09,4.002-12.433,1.081
				c-3.343-2.919-3.197-8.136,0.327-11.651C95.23,103.255,100.795,102.77,104.139,105.689z"/>
			<path fill="#7889B6" d="M101.564,106.435c2.475,2.158,2.364,6.019-0.244,8.623c-2.61,2.601-6.728,2.961-9.198,0.802
				c-2.473-2.165-2.366-6.019,0.243-8.623C94.971,104.631,99.091,104.27,101.564,106.435z"/>
		</g>
		<g>
			<path fill="#475484" d="M103.719,88.086c4.354,3.801,4.16,10.605-0.434,15.192c-4.593,4.582-11.846,5.211-16.204,1.408
				c-4.357-3.807-4.166-10.605,0.427-15.191C92.105,84.907,99.358,84.272,103.719,88.086z"/>
			<path fill="#5A73A6" d="M99.95,89.099c3.342,2.921,3.195,8.138-0.332,11.654c-3.525,3.522-9.086,4.009-12.429,1.089
				c-3.345-2.928-3.198-8.139,0.326-11.66C91.041,86.665,96.606,86.179,99.95,89.099z"/>
			<path fill="#7889B6" d="M97.376,89.845c2.472,2.157,2.363,6.017-0.246,8.623c-2.612,2.601-6.727,2.961-9.198,0.796
				c-2.473-2.159-2.368-6.02,0.243-8.619C90.783,88.04,94.9,87.68,97.376,89.845z"/>
		</g>
		<g>
			<path fill="#475484" d="M115.602,128.28c4.354,3.803,4.16,10.604-0.434,15.191c-4.593,4.582-11.844,5.219-16.201,1.41
				c-4.358-3.809-4.168-10.606,0.425-15.193C103.988,125.108,111.242,124.466,115.602,128.28z"/>
			<path fill="#5A73A6" d="M111.832,129.294c3.343,2.92,3.195,8.137-0.332,11.658c-3.523,3.518-9.086,4.004-12.431,1.083
				c-3.342-2.927-3.196-8.138,0.33-11.659C102.924,126.86,108.488,126.374,111.832,129.294z"/>
			<path fill="#7889B6" d="M109.26,130.038c2.471,2.158,2.361,6.02-0.248,8.624c-2.607,2.601-6.723,2.961-9.197,0.802
				c-2.474-2.165-2.365-6.023,0.243-8.624C102.666,128.233,106.784,127.874,109.26,130.038z"/>
		</g>
		<g>
			<path fill="#475484" d="M127.486,97.483c3.808,3.321,3.637,9.266-0.377,13.275c-4.014,4.002-10.351,4.558-14.158,1.23
				c-3.807-3.327-3.641-9.265,0.373-13.274C117.342,94.711,123.678,94.151,127.486,97.483z"/>
			<path fill="#5A73A6" d="M124.195,98.371c2.921,2.547,2.789,7.112-0.289,10.182c-3.082,3.075-7.941,3.499-10.862,0.952
				c-2.921-2.555-2.794-7.114,0.284-10.19C116.41,96.241,121.275,95.816,124.195,98.371z"/>
			<path fill="#7889B6" d="M121.944,99.017c2.163,1.89,2.063,5.263-0.216,7.537c-2.277,2.273-5.875,2.59-8.035,0.698
				c-2.16-1.889-2.065-5.263,0.213-7.537C116.187,97.443,119.784,97.127,121.944,99.017z"/>
		</g>
		<g>
			<path fill="#475484" d="M118.516,110.804c3.805,3.321,3.637,9.265-0.379,13.273c-4.015,4.008-10.35,4.558-14.156,1.232
				c-3.809-3.328-3.642-9.272,0.371-13.275C108.369,108.025,114.707,107.476,118.516,110.804z"/>
			<path fill="#5A73A6" d="M115.223,111.69c2.922,2.549,2.793,7.112-0.291,10.182c-3.077,3.076-7.938,3.498-10.861,0.945
				c-2.921-2.549-2.792-7.105,0.287-10.183C107.439,109.561,112.302,109.136,115.223,111.69z"/>
			<path fill="#7889B6" d="M112.975,112.337c2.159,1.891,2.062,5.264-0.215,7.537c-2.28,2.273-5.879,2.588-8.037,0.697
				c-2.162-1.889-2.068-5.256,0.213-7.535C107.213,110.763,110.811,110.448,112.975,112.337z"/>
		</g>
		<g>
			<path fill="#475484" d="M135.896,68.954c4.759,4.158,4.549,11.584-0.475,16.596c-5.018,5.01-12.943,5.703-17.701,1.54
				c-4.762-4.157-4.553-11.584,0.467-16.595C123.207,65.484,131.135,64.791,135.896,68.954z"/>
			<path fill="#5A73A6" d="M131.779,70.065c3.652,3.188,3.49,8.888-0.361,12.729c-3.853,3.849-9.932,4.375-13.582,1.185
				c-3.655-3.19-3.495-8.892,0.357-12.735C122.046,67.401,128.125,66.869,131.779,70.065z"/>
			<path fill="#7889B6" d="M128.967,70.871c2.701,2.361,2.58,6.581-0.27,9.42c-2.851,2.846-7.348,3.236-10.051,0.876
				c-2.702-2.359-2.584-6.579,0.267-9.42C121.764,68.903,126.262,68.513,128.967,70.871z"/>
		</g>
		<g>
			<path fill="#475484" d="M91.212,101.636c4.759,4.15,4.546,11.584-0.474,16.6c-5.02,5.005-12.944,5.693-17.703,1.535
				c-4.762-4.157-4.553-11.586,0.465-16.596C78.523,98.165,86.446,97.472,91.212,101.636z"/>
			<path fill="#5A73A6" d="M87.093,102.746c3.654,3.185,3.492,8.888-0.36,12.729c-3.852,3.849-9.929,4.375-13.584,1.186
				c-3.652-3.195-3.492-8.889,0.358-12.735C77.36,100.083,83.44,99.55,87.093,102.746z"/>
			<path fill="#7889B6" d="M84.281,103.554c2.703,2.358,2.581,6.58-0.269,9.426c-2.851,2.84-7.347,3.229-10.048,0.869
				c-2.704-2.359-2.584-6.579,0.265-9.419C77.078,101.584,81.575,101.188,84.281,103.554z"/>
		</g>
		<g>
			<path fill="#475484" d="M122.702,90.153c4.759,4.157,4.548,11.59-0.472,16.596c-5.02,5.01-12.945,5.704-17.704,1.539
				c-4.761-4.156-4.552-11.584,0.467-16.595C110.015,86.683,117.941,85.989,122.702,90.153z"/>
			<path fill="#5A73A6" d="M118.584,91.264c3.652,3.189,3.492,8.888-0.358,12.736c-3.854,3.843-9.931,4.37-13.585,1.179
				c-3.651-3.194-3.491-8.893,0.359-12.735C108.853,88.601,114.932,88.068,118.584,91.264z"/>
			<path fill="#7889B6" d="M115.773,92.071c2.701,2.36,2.582,6.58-0.27,9.421c-2.85,2.847-7.348,3.235-10.049,0.876
				c-2.702-2.36-2.583-6.582,0.266-9.421C108.568,90.102,113.068,89.712,115.773,92.071z"/>
		</g>
		<g>
			<path fill="#475484" d="M107.838,140.523c4.76,4.157,4.547,11.589-0.474,16.601c-5.018,5.004-12.943,5.697-17.702,1.535
				c-4.761-4.158-4.552-11.584,0.469-16.596C95.151,137.054,103.077,136.359,107.838,140.523z"/>
			<path fill="#5A73A6" d="M103.721,141.634c3.652,3.19,3.49,8.894-0.361,12.736c-3.851,3.842-9.929,4.369-13.58,1.18
				c-3.654-3.19-3.495-8.887,0.358-12.73C93.988,138.972,100.068,138.438,103.721,141.634z"/>
			<path fill="#7889B6" d="M100.908,142.442c2.703,2.357,2.583,6.58-0.268,9.425c-2.85,2.841-7.349,3.235-10.049,0.876
				c-2.703-2.363-2.585-6.579,0.266-9.426C93.704,140.472,98.205,140.083,100.908,142.442z"/>
		</g>
		<g>
			<path fill="#475484" d="M94.288,77.32c4.354,3.808,4.162,10.611-0.432,15.197c-4.597,4.582-11.848,5.211-16.206,1.41
				c-4.356-3.809-4.165-10.605,0.428-15.193C82.674,74.148,89.929,73.517,94.288,77.32z"/>
			<path fill="#5A73A6" d="M90.518,78.339c3.343,2.92,3.195,8.138-0.33,11.659c-3.526,3.516-9.088,4.002-12.43,1.083
				c-3.345-2.927-3.197-8.139,0.327-11.66C81.61,75.9,87.174,75.419,90.518,78.339z"/>
			<path fill="#7889B6" d="M87.945,79.084c2.474,2.158,2.363,6.017-0.246,8.624c-2.607,2.6-6.725,2.954-9.199,0.796
				c-2.471-2.158-2.365-6.019,0.245-8.625C81.351,77.279,85.471,76.919,87.945,79.084z"/>
		</g>
		<g>
			<path fill="#475484" d="M112.553,65.782c4.357,3.808,4.162,10.605-0.43,15.191c-4.597,4.588-11.848,5.218-16.205,1.41
				c-4.357-3.808-4.168-10.605,0.427-15.187C100.939,62.609,108.193,61.974,112.553,65.782z"/>
			<path fill="#5A73A6" d="M108.785,66.801c3.342,2.915,3.195,8.137-0.332,11.653c-3.523,3.517-9.087,4.003-12.429,1.083
				c-3.344-2.921-3.198-8.138,0.326-11.653C99.877,64.361,105.442,63.875,108.785,66.801z"/>
			<path fill="#7889B6" d="M106.209,67.54c2.475,2.159,2.366,6.018-0.244,8.624c-2.607,2.605-6.726,2.96-9.196,0.803
				c-2.474-2.165-2.368-6.025,0.242-8.625C99.618,65.735,103.736,65.381,106.209,67.54z"/>
		</g>
		<g>
			<path fill="#475484" d="M104.222,119.56c4.357,3.802,4.165,10.605-0.433,15.19c-4.593,4.581-11.846,5.212-16.201,1.41
				c-4.357-3.814-4.167-10.604,0.426-15.192C92.611,116.381,99.865,115.745,104.222,119.56z"/>
			<path fill="#5A73A6" d="M100.457,120.571c3.341,2.922,3.194,8.139-0.332,11.654c-3.526,3.522-9.089,4.004-12.433,1.082
				c-3.342-2.92-3.195-8.137,0.33-11.653C91.545,118.14,97.111,117.651,100.457,120.571z"/>
			<path fill="#7889B6" d="M97.88,121.312c2.472,2.163,2.362,6.023-0.246,8.623c-2.608,2.607-6.726,2.961-9.198,0.802
				c-2.474-2.158-2.367-6.018,0.242-8.624C91.288,119.513,95.405,119.151,97.88,121.312z"/>
		</g>
		<g>
			<path fill="#475484" d="M77.889,68.324c3.805,3.321,3.637,9.266-0.378,13.274c-4.014,4.002-10.352,4.552-14.157,1.231
				c-3.809-3.328-3.642-9.272,0.373-13.275C67.742,65.546,74.08,64.991,77.889,68.324z"/>
			<path fill="#5A73A6" d="M74.595,69.205c2.92,2.555,2.792,7.113-0.288,10.188c-3.082,3.074-7.943,3.5-10.864,0.95
				c-2.919-2.559-2.793-7.116,0.286-10.186C66.812,67.08,71.672,66.658,74.595,69.205z"/>
			<path fill="#7889B6" d="M72.345,69.859c2.163,1.883,2.066,5.256-0.213,7.536c-2.279,2.273-5.876,2.582-8.036,0.698
				c-2.163-1.889-2.068-5.262,0.212-7.536C66.586,68.278,70.183,67.969,72.345,69.859z"/>
		</g>
		<g>
			<path fill="#475484" d="M91.624,126.39c3.805,3.322,3.637,9.267-0.379,13.274c-4.013,4.004-10.351,4.559-14.158,1.232
				c-3.806-3.327-3.64-9.272,0.374-13.274C81.478,123.612,87.816,123.058,91.624,126.39z"/>
			<path fill="#5A73A6" d="M88.329,127.278c2.922,2.548,2.794,7.105-0.29,10.182c-3.079,3.075-7.94,3.5-10.86,0.945
				c-2.922-2.549-2.794-7.113,0.286-10.184C80.547,125.147,85.409,124.725,88.329,127.278z"/>
			<path fill="#7889B6" d="M86.083,127.925c2.158,1.884,2.063,5.258-0.214,7.535c-2.282,2.274-5.879,2.584-8.039,0.7
				c-2.161-1.89-2.066-5.262,0.211-7.538C80.319,126.35,83.919,126.035,86.083,127.925z"/>
		</g>
		<g>
			<g>
				<path fill="#00A94F" d="M128.573,47.869c0,0,0.563-2.691-3.059-4.935c-3.622-2.251-3.431-2.251-3.194-2.251h0.519
					c0.234,0,0.29-0.131,0.123-0.298l-1.452-1.46c-0.168-0.16-0.111-0.303,0.123-0.303h0.144c0.235,0,0.382-0.184,0.325-0.413
					l-0.293-1.168c-0.057-0.229,0.088-0.413,0.322-0.413h0.458c0.233,0,0.429-0.194,0.427-0.429v-0.832
					c0-0.234,0.177-0.348,0.391-0.251l1.969,0.899c0.215,0.091,0.389-0.023,0.389-0.252v-0.836c0-0.234,0.191-0.423,0.428-0.423
					h0.395c0.236,0,0.426-0.195,0.426-0.43v-1.139c0-0.242,0.18-0.356,0.396-0.269l1.021,0.424c0.218,0.091,0.474-0.012,0.57-0.23
					l0.151-0.344c0.096-0.211,0.354-0.314,0.57-0.223l0.893,0.36c0.219,0.092,0.533,0.029,0.699-0.138l0.396-0.4
					c0.165-0.166,0.302-0.108,0.302,0.126v0.521c0,0.236,0.144,0.305,0.323,0.149l1.227-1.066c0.178-0.154,0.457-0.142,0.625,0.024
					l0.334,0.332c0.166,0.167,0.469,0.206,0.675,0.097l1.5-0.835c0.206-0.114,0.511-0.07,0.677,0.092c0,0,0.32,0.325-0.303,2.57
					l1.375-0.109c0.164-0.161-0.438,0.298-0.531,0.516c0,0-1.845,2.594-1.094,3.344c0,0,2.372-0.127,3.373-2.748l0.509,0.509
					c0.166,0.167,0.463,0.194,0.658,0.063l0.786-0.521c0.196-0.132,0.482-0.114,0.638,0.04c0.153,0.154,0.474,0.286,0.708,0.286
					h0.894c0.236-0.006,0.341,0.167,0.23,0.373l-0.417,0.807c-0.107,0.205-0.004,0.378,0.23,0.378h0.77
					c0.234,0,0.426,0.188,0.426,0.423v0.212c0,0.234,0.177,0.344,0.389,0.245l0.723-0.332c0.213-0.097,0.389,0.018,0.389,0.252
					v0.578c0,0.234,0.186,0.476,0.414,0.538l2.295,0.597c0.227,0.062,0.414,0.303,0.414,0.532v0.773
					c0,0.235,0.136,0.561,0.303,0.727l0.206,0.212c0.165,0.16,0.302,0.422,0.302,0.578c0,0.154,0.178,0.367,0.387,0.464l1.911,0.887
					c0.214,0.104,0.225,0.281,0.022,0.401l-2.766,1.684c-0.202,0.12-0.229,0.355-0.062,0.521l0.269,0.269
					c0.167,0.167,0.124,0.373-0.095,0.459l-2.515,1.001c-0.219,0.08-0.58,0.091-0.806,0.018c0,0-5.963-1.988-5.963,0.761
					c0.001,2.749,4.367,0.453,4.367,0.453c0.21-0.115,0.568-0.162,0.795-0.103l2.417,0.549c0.228,0.057,0.415,0.292,0.415,0.527
					v0.142c0,0.242,0.192,0.43,0.428,0.43h0.206c0.233,0,0.292,0.138,0.126,0.304l-0.302,0.297
					c-0.167,0.167-0.119,0.366,0.103,0.441l1.938,0.659c0.223,0.081,0.243,0.246,0.048,0.379l-1.812,1.184
					c-0.198,0.133-0.225,0.372-0.058,0.539l0.459,0.452c0.166,0.167,0.106,0.305-0.126,0.305h-0.457
					c-0.234,0-0.271,0.114-0.082,0.251l1.369,0.996c0.189,0.137,0.162,0.315-0.061,0.39l-1.061,0.354
					c-0.223,0.075-0.227,0.206-0.013,0.293l0.896,0.365c0.219,0.086,0.232,0.257,0.03,0.379l-0.517,0.308
					c-0.202,0.126-0.202,0.327-0.005,0.453l1.649,1.041c0.199,0.127,0.197,0.328-0.006,0.442l-0.761,0.44
					c-0.202,0.121-0.233,0.355-0.067,0.521l0.894,0.892c0.169,0.167,0.109,0.305-0.124,0.305h-1.017c-0.237,0-0.323,0.16-0.196,0.36
					l0.969,1.465c0.129,0.201,0.098,0.499-0.068,0.665l-0.02,0.017c-0.168,0.166-0.209,0.471-0.09,0.67c0,0,1.036,1.816,1.036,3.253
					c0,0-3.56,1.065-5.246,0v0.825c0,0.229-0.183,0.367-0.402,0.286l-2.255-0.778c-0.221-0.08-0.465,0.04-0.536,0.263l-0.229,0.687
					c-0.076,0.223-0.301,0.303-0.5,0.179l-1.896-1.169c-0.199-0.126-0.444-0.051-0.545,0.16l-0.511,1.095
					c-0.101,0.217-0.353,0.303-0.562,0.2l-2.299-1.174c-0.208-0.109-0.515-0.063-0.682,0.108l-1.958,1.954
					c-0.165,0.165-0.438,0.165-0.602,0l-0.957-0.958c-0.17-0.166-0.485-0.24-0.711-0.166l-0.312,0.103
					c-0.223,0.075-0.406-0.057-0.406-0.292v-1.455c0-0.234-0.191-0.428-0.426-0.428H131.5c-0.235,0-0.371-0.184-0.297-0.408
					c0,0,1.805-5.651-0.88-6.459c-2.685-0.812-0.306,7.519-0.306,7.519c0.066,0.224-0.016,0.276-0.184,0.109l-0.52-0.521
					c-0.166-0.166-0.338-0.114-0.38,0.115l-0.534,2.972c-0.041,0.235-0.213,0.286-0.378,0.12l-0.395-0.395
					c-0.167-0.166-0.302-0.109-0.302,0.125v1.015c0,0.24-0.16,0.326-0.359,0.194l-0.721-0.471c-0.197-0.125-0.395-0.044-0.44,0.19
					c0,0-0.5,2.537-1.789,2.954c-1.29,0.412-1.29-1.449-1.29-1.449c0-0.234-0.193-0.429-0.428-0.429h-0.229
					c-0.234,0-0.426-0.189-0.426-0.424v-0.768c0-0.24-0.194-0.429-0.432-0.429h-0.268c-0.233,0-0.484-0.184-0.553-0.407
					l-0.309-0.998c-0.07-0.228-0.318-0.405-0.555-0.405h-0.332c-0.236,0-0.492-0.184-0.572-0.408l-0.586-1.625
					c-0.079-0.224-0.336-0.406-0.572-0.406h-0.643c-0.236,0-0.428-0.189-0.428-0.431v-1.392c0-0.234-0.137-0.56-0.303-0.727
					l-0.207-0.206c-0.167-0.167-0.167-0.44,0-0.606l0.146-0.143c0.163-0.166,0.302-0.499,0.302-0.733v-0.643
					c0-0.234-0.192-0.428-0.428-0.428h-1.644c-0.235,0-0.336-0.167-0.226-0.378l0.598-1.118c0.109-0.206,0.01-0.377-0.228-0.377
					h-0.017c-0.238,0-0.305-0.143-0.148-0.326l1.062-1.226c0.155-0.178,0.09-0.321-0.146-0.321h-0.082
					c-0.233,0-0.263-0.098-0.059-0.224c0,0,4.128-2.461,3.566-3.899c-0.562-1.438-3.695,0.463-3.695,0.463
					c-0.202,0.126-0.501,0.086-0.667-0.08l-0.145-0.143c-0.166-0.166-0.496-0.292-0.729-0.286l-0.584,0.029
					c-0.233,0.011-0.427-0.172-0.427-0.413v-0.08c0-0.233-0.183-0.366-0.405-0.292c0,0-1.592,0.554-1.967,0.177
					c-0.375-0.372,1.143-1.999,1.143-1.999c0.162-0.172,0.158-0.446-0.012-0.614l-0.578-0.584c-0.168-0.165-0.145-0.406,0.051-0.543
					l0.789-0.521c0.196-0.132,0.22-0.373,0.053-0.539l-0.457-0.459c-0.166-0.165-0.135-0.394,0.072-0.509l0.623-0.337
					c0.209-0.11,0.376-0.397,0.376-0.631l-0.001-0.458c0-0.235,0.182-0.492,0.406-0.567l0.254-0.091
					c0.222-0.081,0.402-0.338,0.402-0.567v-0.085c0-0.236,0.192-0.43,0.43-0.43h0.455c0.236,0,0.389-0.189,0.344-0.418l-0.021-0.096
					c-0.045-0.23,0.111-0.401,0.344-0.384l0.646,0.051c0.237,0.022,0.428-0.155,0.428-0.389v-0.269c0-0.235,0.192-0.424,0.428-0.43
					l0.645,0.006c0.234,0,0.427-0.194,0.427-0.429v-0.837c0-0.229,0.182-0.36,0.403-0.286l1.192,0.412
					c0.222,0.074,0.402-0.046,0.402-0.269c0-0.224,0.15-0.287,0.328-0.131l0.402,0.327c0.184,0.148,0.467,0.136,0.634-0.029
					l0.019-0.024c0.168-0.165,0.325-0.108,0.351,0.126C120.94,42.234,121.703,48.991,128.573,47.869z"/>
				<path fill="#54B848" d="M122.727,74.336c0-0.234-0.193-0.429-0.428-0.429h-0.229c-0.234,0-0.426-0.189-0.426-0.424v-0.768
					c0-0.24-0.194-0.429-0.432-0.429h-0.268c-0.233,0-0.484-0.184-0.553-0.407l-0.309-0.998c-0.07-0.228-0.318-0.405-0.555-0.405
					h-0.332c-0.236,0-0.492-0.184-0.572-0.408l-0.586-1.625c-0.079-0.224-0.336-0.406-0.572-0.406h-0.643
					c-0.236,0-0.428-0.189-0.428-0.431v-1.392c0-0.234-0.137-0.56-0.303-0.727l-0.207-0.206c-0.167-0.167-0.167-0.44,0-0.606
					l0.146-0.143c0.163-0.166,0.302-0.499,0.302-0.733v-0.643c0-0.234-0.192-0.428-0.428-0.428h-1.644
					c-0.235,0-0.336-0.167-0.226-0.378l0.598-1.118c0.109-0.206,0.01-0.377-0.228-0.377h-0.017c-0.238,0-0.305-0.143-0.148-0.326
					l1.062-1.226c0.155-0.178,0.09-0.321-0.146-0.321h-0.082c-0.233,0-0.263-0.098-0.059-0.224c0,0,4.128-2.461,3.566-3.899
					c-0.562-1.438-3.695,0.463-3.695,0.463c-0.202,0.126-0.501,0.086-0.667-0.08l-0.145-0.143c-0.166-0.166-0.496-0.292-0.729-0.286
					l-0.584,0.029c-0.233,0.011-0.427-0.172-0.427-0.413v-0.08c0-0.233-0.183-0.366-0.405-0.292c0,0-1.592,0.554-1.967,0.177
					c-0.375-0.372,1.143-1.999,1.143-1.999c0.162-0.172,0.158-0.446-0.012-0.614l-0.578-0.584c-0.168-0.165-0.145-0.406,0.051-0.543
					l0.789-0.521c0.196-0.132,0.22-0.373,0.053-0.539l-0.457-0.459c-0.166-0.165-0.135-0.394,0.072-0.509l0.623-0.337
					c0.209-0.11,0.376-0.397,0.376-0.631l-0.001-0.458c0-0.235,0.182-0.492,0.406-0.567l0.254-0.091
					c0.222-0.081,0.402-0.338,0.402-0.567v-0.085c0-0.236,0.192-0.43,0.43-0.43h0.455c0.236,0,0.389-0.189,0.344-0.418l-0.021-0.096
					c-0.045-0.23,0.111-0.401,0.344-0.384l0.646,0.051c0.237,0.022,0.428-0.155,0.428-0.389v-0.269c0-0.235,0.192-0.424,0.428-0.43
					l0.645,0.006c0.234,0,0.427-0.194,0.427-0.429v-0.837c0-0.229,0.182-0.36,0.403-0.286l1.192,0.412
					c0.222,0.074,0.402-0.046,0.402-0.269c0-0.224,0.15-0.287,0.328-0.131l0.402,0.327c0.184,0.148,0.467,0.136,0.634-0.029
					l0.019-0.024c0.168-0.165,0.325-0.108,0.351,0.126c0,0,0.714,6.288,6.931,5.726l0.937,0.71c0,0,13.286,12.903,23.923,20.318
					c0.008,0.098,0.013,0.201,0.013,0.298c0,0-3.56,1.065-5.246,0v0.825c0,0.229-0.183,0.367-0.402,0.286l-2.255-0.778
					c-0.221-0.08-0.465,0.04-0.536,0.263l-0.229,0.687c-0.076,0.223-0.301,0.303-0.5,0.179l-1.896-1.169
					c-0.199-0.126-0.444-0.051-0.545,0.16l-0.511,1.095c-0.101,0.217-0.353,0.303-0.562,0.2l-2.299-1.174
					c-0.208-0.109-0.515-0.063-0.682,0.108l-1.958,1.954c-0.165,0.165-0.438,0.165-0.602,0l-0.957-0.958
					c-0.17-0.166-0.485-0.24-0.711-0.166l-0.312,0.103c-0.223,0.075-0.406-0.057-0.406-0.292v-1.455
					c0-0.234-0.191-0.428-0.426-0.428H131.5c-0.235,0-0.371-0.184-0.297-0.408c0,0,1.805-5.651-0.88-6.459
					c-2.685-0.812-0.306,7.519-0.306,7.519c0.066,0.224-0.016,0.276-0.184,0.109l-0.52-0.521c-0.166-0.166-0.338-0.114-0.38,0.115
					l-0.534,2.972c-0.041,0.235-0.213,0.286-0.378,0.12l-0.395-0.395c-0.167-0.166-0.302-0.109-0.302,0.125v1.015
					c0,0.24-0.16,0.326-0.359,0.194l-0.721-0.471c-0.197-0.125-0.395-0.044-0.44,0.19c0,0-0.5,2.537-1.789,2.954
					C122.727,76.197,122.727,74.336,122.727,74.336z"/>
				<path fill="#0DB04B" d="M119.482,61.944c0.415,1.908-0.165,6.644,1.389,7.852c1.769,1.38,5.096-0.059,7.047,1.339
					c0.205,0.148,0.391,0.309,0.562,0.481l-0.08,0.436c-0.041,0.235-0.213,0.286-0.378,0.12l-0.395-0.395
					c-0.167-0.166-0.302-0.109-0.302,0.125v1.015c0,0.24-0.16,0.326-0.359,0.194l-0.721-0.471c-0.197-0.125-0.395-0.044-0.44,0.19
					c0,0-0.5,2.537-1.789,2.954c-1.29,0.412-1.29-1.449-1.29-1.449c0-0.234-0.193-0.429-0.428-0.429h-0.229
					c-0.234,0-0.426-0.189-0.426-0.424v-0.768c0-0.24-0.194-0.429-0.432-0.429h-0.268c-0.233,0-0.484-0.184-0.553-0.407
					l-0.309-0.998c-0.07-0.228-0.318-0.405-0.555-0.405h-0.332c-0.236,0-0.492-0.184-0.572-0.408l-0.586-1.625
					c-0.079-0.224-0.336-0.406-0.572-0.406h-0.643c-0.236,0-0.428-0.189-0.428-0.431v-1.392c0-0.234-0.137-0.56-0.303-0.727
					l-0.207-0.206c-0.167-0.167-0.167-0.44,0-0.606l0.146-0.143c0.163-0.166,0.302-0.499,0.302-0.733v-0.643
					c0-0.234-0.192-0.428-0.428-0.428h-1.644c-0.235,0-0.336-0.167-0.226-0.378l0.598-1.118c0.109-0.206,0.01-0.377-0.228-0.377
					h-0.017c-0.238,0-0.305-0.143-0.148-0.326l1.062-1.226c0.155-0.178,0.09-0.321-0.146-0.321h-0.082
					c-0.233,0-0.263-0.098-0.059-0.224c0,0,0.753-0.446,1.575-1.076C118.26,59.11,118.974,59.596,119.482,61.944z"/>
				<path fill="#00A551" d="M147.954,58.211c-0.983-3.625-3.1-4.673-2.968-8.522c0.485-0.2,0.82-0.371,0.82-0.371
					c0.21-0.115,0.568-0.162,0.795-0.103l2.417,0.549c0.228,0.057,0.415,0.292,0.415,0.527v0.142c0,0.242,0.192,0.43,0.428,0.43
					h0.206c0.233,0,0.292,0.138,0.126,0.304l-0.302,0.297c-0.167,0.167-0.119,0.366,0.103,0.441l1.938,0.659
					c0.223,0.081,0.243,0.246,0.048,0.379l-1.812,1.184c-0.198,0.133-0.225,0.372-0.058,0.539l0.459,0.452
					c0.166,0.167,0.106,0.305-0.126,0.305h-0.457c-0.234,0-0.271,0.114-0.082,0.251l1.369,0.996c0.189,0.137,0.162,0.315-0.061,0.39
					l-1.061,0.354c-0.223,0.075-0.227,0.206-0.013,0.293l0.896,0.365c0.219,0.086,0.232,0.257,0.03,0.379l-0.517,0.308
					c-0.202,0.126-0.202,0.327-0.005,0.453l1.649,1.041c0.199,0.127,0.197,0.328-0.006,0.442l-0.761,0.44
					c-0.202,0.121-0.233,0.355-0.067,0.521l0.894,0.892c0.169,0.167,0.109,0.305-0.124,0.305h-1.017c-0.237,0-0.323,0.16-0.196,0.36
					l0.969,1.465c0.129,0.201,0.098,0.499-0.068,0.665l-0.02,0.017c-0.168,0.166-0.209,0.471-0.09,0.67c0,0,1.036,1.816,1.036,3.253
					c0,0-2.257,0.67-4.027,0.413c-0.041-0.538-0.071-1.031-0.104-1.306C148.195,64.991,148.875,61.606,147.954,58.211z"/>
				<path fill="#0DB04B" d="M113.256,48.969c2.119,0.738,1.874,1.884,1.586,3.859c-0.188,1.265-0.344,1.964-0.197,2.571
					c-0.156,0.006-0.317-0.046-0.424-0.155l-0.145-0.143c-0.166-0.166-0.496-0.292-0.729-0.286l-0.584,0.029
					c-0.233,0.011-0.427-0.172-0.427-0.413v-0.08c0-0.233-0.183-0.366-0.405-0.292c0,0-1.592,0.554-1.967,0.177
					c-0.375-0.372,1.143-1.999,1.143-1.999c0.162-0.172,0.158-0.446-0.012-0.614l-0.578-0.584c-0.168-0.165-0.145-0.406,0.051-0.543
					l0.789-0.521c0.196-0.132,0.22-0.373,0.053-0.539l-0.457-0.459c-0.083-0.08-0.117-0.182-0.103-0.274
					C111.631,48.613,112.43,48.682,113.256,48.969z"/>
				<path fill="#00A551" d="M146.023,40.66c-0.914-0.854-3.474-0.717-4.63-0.871c-1.687-0.223-6.244-0.052-6.765-1.631
					c-0.518-1.57,2.372-4.347-1.414-3.854c-1.063,0.144-2.43,1.62-3.537,2.033c-1.981,0.745-4.193,0.716-6.265,1.014
					c-0.334,0.046-0.884,0.075-1.516,0.052l-0.089-0.361c-0.057-0.229,0.088-0.413,0.322-0.413h0.458
					c0.233,0,0.429-0.194,0.427-0.429v-0.832c0-0.234,0.177-0.348,0.391-0.251l1.969,0.899c0.215,0.091,0.389-0.023,0.389-0.252
					v-0.836c0-0.234,0.191-0.423,0.428-0.423h0.395c0.236,0,0.426-0.195,0.426-0.43v-1.139c0-0.242,0.18-0.356,0.396-0.269
					l1.021,0.424c0.218,0.091,0.474-0.012,0.57-0.23l0.151-0.344c0.096-0.211,0.354-0.314,0.57-0.223l0.893,0.36
					c0.219,0.092,0.533,0.029,0.699-0.138l0.396-0.4c0.165-0.166,0.302-0.108,0.302,0.126v0.521c0,0.236,0.144,0.305,0.323,0.149
					l1.227-1.066c0.178-0.154,0.457-0.142,0.625,0.024l0.334,0.332c0.166,0.167,0.469,0.206,0.675,0.097l1.5-0.835
					c0.206-0.114,0.511-0.07,0.677,0.092c0,0,0.32,0.325-0.303,2.57l1.342-0.104c-0.13,0.099-0.436,0.361-0.498,0.511
					c0,0-1.845,2.594-1.094,3.344c0,0,2.372-0.127,3.373-2.748l0.509,0.509c0.166,0.167,0.463,0.194,0.658,0.063l0.786-0.521
					c0.196-0.132,0.482-0.114,0.638,0.04c0.153,0.154,0.474,0.286,0.708,0.286h0.894c0.236-0.006,0.341,0.167,0.23,0.373
					l-0.417,0.807c-0.107,0.205-0.004,0.378,0.23,0.378h0.77c0.234,0,0.426,0.188,0.426,0.423v0.212
					c0,0.234,0.177,0.344,0.389,0.245l0.723-0.332c0.213-0.097,0.389,0.018,0.389,0.252v0.578c0,0.234,0.186,0.476,0.414,0.538
					l2.295,0.597c0.227,0.062,0.414,0.303,0.414,0.532v0.773c0,0.235,0.136,0.561,0.303,0.727l0.206,0.212
					c0.165,0.16,0.302,0.422,0.302,0.578c0,0.154,0.178,0.367,0.387,0.464l1.911,0.887c0.214,0.104,0.225,0.281,0.022,0.401
					l-2.766,1.684c-0.202,0.12-0.229,0.355-0.062,0.521l0.269,0.269c0.167,0.167,0.124,0.373-0.095,0.459l-2.515,1.001
					c-0.219,0.08-0.58,0.091-0.806,0.018c0,0-0.937-0.309-2.068-0.516c0.438-1.203,1.227-1.695,2.037-3.288
					C146.229,43.23,147.165,41.73,146.023,40.66z"/>
				<path fill="#00A94F" d="M138.443,34.017l-0.033,0.005C138.471,33.977,138.496,33.965,138.443,34.017z"/>
				<g>
					<path fill="#009D4D" d="M128.804,48.722c0,0,0.627-9.729,5.461-15.346c0,0-5.657,10.25-4.593,15.129
						c0,0,6.387-5.492,21.963-4.146c0,0-16.093-0.83-21.863,4.942c0,0,13.18,13.83,21.922,19.208c0,0-13.127-7.972-22.596-18.898
						c0,0-6.43,9.819-4.971,24.72c0,0-2.008-13.399,4.156-24.835c0,0-10.711-0.429-16.541,4.05
						C111.742,53.544,116.254,49.175,128.804,48.722z"/>
					<path fill="#009D4D" d="M129.486,44.188c0,0-5.194-3.752-5.194-7.004c0,0,2.153,5.435,5.196,6.219L129.486,44.188z"/>
					<path fill="#009D4D" d="M130.913,38.889c0,0-1.702-2.193-1.185-3.75c0,0,0.059,2.027,1.33,3.298L130.913,38.889z"/>
					<path fill="#009D4D" d="M132.797,46.706c0,0,3.697-6.842,8.69-8.686c0,0-4.923,2.44-7.559,8.223L132.797,46.706z"/>
					<path fill="#009D4D" d="M138.903,45.195c0,0,2.177-4.038,5.124-5.125c0,0-2.902,1.443-4.457,4.851L138.903,45.195z"/>
					<path fill="#009D4D" d="M132.564,47.319c0,0,2.262,0.921,5.413,1.071c0,0-2.713,0.28-6.792-0.654L132.564,47.319z"/>
					<path fill="#009D4D" d="M144.002,44.553c0,0,1.414,1.094,2.928,1.598c0,0-1.164-0.698-2.129-1.661L144.002,44.553z"/>
					<path fill="#009D4D" d="M131.572,52.319c0,0-1.227,8.733,2.581,16.463c0,0-3.404-8.543-2.03-15.891L131.572,52.319z"/>
					<path fill="#009D4D" d="M137.312,57.781c0,0,0.26,8.034,1.94,12.071c0,0-0.968-4.975-1.521-11.704L137.312,57.781z"/>
					<path fill="#009D4D" d="M132.828,52.41c0,0,7.601-1.254,16.117,0c0,0-14.229-0.606-15.611,0.504L132.828,52.41z"/>
					<path fill="#009D4D" d="M148.385,56.905c0,0-7.222-1.506-10.249,0.619l-0.733-0.729
						C137.402,56.796,144.912,55.118,148.385,56.905z"/>
					<path fill="#009D4D" d="M142.023,61.046c0,0,3.673-1.014,7.428,0.005c0,0-6.838-0.607-6.838,0.508L142.023,61.046z"/>
					<path fill="#009D4D" d="M144.119,63.284c0,0-0.498,4.1,1.187,5.108c0,0-1.538-2.416-0.349-4.482L144.119,63.284z"/>
					<path fill="#009D4D" d="M127.097,51.946c0,0-8.911,4.456-12.331,9.443c0,0,4.756-5.182,12.016-8.699L127.097,51.946z"/>
					<path fill="#009D4D" d="M124.758,59.442c0,0-3.849,1.585-7.424,7.427c0,0,2.384-5.263,7.586-8.171L124.758,59.442z"/>
					<path fill="#009D4D" d="M123.912,65.89c0,0-2.317,2.004-3.375,4.742c0,0,2.18-3.458,3.33-3.968L123.912,65.89z"/>
					<path fill="#009D4D" d="M126.5,55.137c0,0,2.838,1.213,2.387,4.574c0,0-0.275-3.968-2.605-3.968L126.5,55.137z"/>
					<path fill="#009D4D" d="M124.384,49.072c0,0-3.175-4.829-6.255-4.829c0,0,4.064,1.656,5.365,4.949L124.384,49.072z"/>
					<path fill="#009D4D" d="M120.622,50.085c0,0-0.7,1.889-3.11,2.508c0,0,2.371-0.705,2.371-2.371L120.622,50.085z"/>
					<path fill="#009D4D" d="M116.256,51.025c0,0-1.041-1.456-2.497-0.727c0,0,1.596-0.082,1.837,0.995L116.256,51.025z"/>
					<path fill="#009D4D" d="M130.587,41.788c0,0,4.295,0.55,4.295-2.302c0,0-0.823,2.708-4.138,1.826L130.587,41.788z"/>
				</g>
				<g>
					<path fill="#72BE44" d="M129.152,48.66c0,0,0.626-9.735,5.463-15.353c0,0-5.658,10.25-4.596,15.128
						c0,0,6.388-5.49,21.963-4.151c0,0-16.092-0.824-21.862,4.948c0,0,13.181,13.823,21.921,19.206c0,0-13.127-7.971-22.594-18.897
						c0,0-6.432,9.815-4.977,24.721c0,0-2.002-13.406,4.162-24.836c0,0-10.715-0.435-16.543,4.049
						C112.09,53.476,116.604,49.106,129.152,48.66z"/>
					<path fill="#72BE44" d="M129.834,44.12c0,0-5.193-3.758-5.193-7.005c0,0,2.152,5.435,5.193,6.219V44.12z"/>
					<path fill="#72BE44" d="M131.262,38.821c0,0-1.7-2.193-1.185-3.75c0,0,0.058,2.026,1.33,3.298L131.262,38.821z"/>
					<path fill="#72BE44" d="M133.145,46.643c0,0,3.699-6.854,8.689-8.691c0,0-4.921,2.433-7.555,8.222L133.145,46.643z"/>
					<path fill="#72BE44" d="M139.253,45.127c0,0,2.178-4.038,5.122-5.125c0,0-2.901,1.437-4.453,4.849L139.253,45.127z"/>
					<path fill="#72BE44" d="M132.913,47.25c0,0,2.263,0.923,5.415,1.078c0,0-2.717,0.28-6.795-0.659L132.913,47.25z"/>
					<path fill="#72BE44" d="M144.353,44.485c0,0,1.413,1.094,2.925,1.591c0,0-1.164-0.692-2.127-1.654L144.353,44.485z"/>
					<path fill="#72BE44" d="M131.921,52.25c0,0-1.229,8.732,2.581,16.468c0,0-3.404-8.548-2.029-15.901L131.921,52.25z"/>
					<path fill="#72BE44" d="M137.662,57.708c0,0,0.258,8.038,1.94,12.071c0,0-0.968-4.973-1.521-11.7L137.662,57.708z"/>
					<path fill="#72BE44" d="M133.178,52.336c0,0,7.601-1.249,16.116,0c0,0-14.229-0.596-15.612,0.504L133.178,52.336z"/>
					<path fill="#72BE44" d="M148.733,56.836c0,0-7.221-1.512-10.249,0.619l-0.732-0.727
						C137.752,56.728,145.26,55.043,148.733,56.836z"/>
					<path fill="#72BE44" d="M142.373,60.977c0,0,3.671-1.013,7.426,0c0,0-6.839-0.601-6.839,0.515L142.373,60.977z"/>
					<path fill="#72BE44" d="M144.468,63.216c0,0-0.496,4.101,1.185,5.108c0,0-1.537-2.417-0.347-4.483L144.468,63.216z"/>
					<path fill="#72BE44" d="M127.445,51.877c0,0-8.912,4.456-12.329,9.444c0,0,4.755-5.184,12.015-8.699L127.445,51.877z"/>
					<path fill="#72BE44" d="M125.107,59.374c0,0-3.849,1.586-7.426,7.427c0,0,2.385-5.263,7.584-8.173L125.107,59.374z"/>
					<path fill="#72BE44" d="M124.261,65.821c0,0-2.316,2.003-3.373,4.742c0,0,2.177-3.459,3.328-3.968L124.261,65.821z"/>
					<path fill="#72BE44" d="M126.846,55.067c0,0,2.838,1.208,2.389,4.576c0,0-0.277-3.974-2.604-3.974L126.846,55.067z"/>
					<path fill="#72BE44" d="M124.734,49.003c0,0-3.176-4.828-6.256-4.828c0,0,4.064,1.655,5.365,4.948L124.734,49.003z"/>
					<path fill="#72BE44" d="M120.973,50.017c0,0-0.701,1.889-3.111,2.508c0,0,2.367-0.705,2.367-2.372L120.973,50.017z"/>
					<path fill="#72BE44" d="M116.604,50.956c0,0-1.04-1.456-2.494-0.729c0,0,1.596-0.085,1.832,0.991L116.604,50.956z"/>
					<path fill="#72BE44" d="M130.938,41.719c0,0,4.293,0.549,4.293-2.308c0,0-0.82,2.714-4.138,1.832L130.938,41.719z"/>
				</g>
			</g>
			<g>
				<path fill="#72BE44" d="M126.421,55.743c2.327,0,2.606,3.968,2.606,3.968c0.447-3.361-2.387-4.574-2.387-4.574L126.421,55.743z
					 M148.526,56.905c-3.476-1.787-10.981-0.109-10.981-0.109l0.73,0.729C141.305,55.399,148.526,56.905,148.526,56.905z
					 M149.59,61.046c-3.754-1.008-7.426,0.005-7.426,0.005l0.586,0.508C142.75,60.444,149.59,61.046,149.59,61.046z M129.238,49.61
					c0.808,0.934,1.644,1.843,2.497,2.736l-0.022-0.027c0,0-1.229,8.733,2.581,16.463c0,0-3.407-8.543-2.031-15.891l-0.022-0.022
					c1.775,1.809,3.611,3.515,5.414,5.089l-0.203-0.177c0,0,0.26,8.034,1.941,12.071c0,0-0.965-4.975-1.52-11.704L137.697,58
					c2.323,2.016,4.592,3.813,6.609,5.32l-0.047-0.028c0,0-0.496,4.093,1.186,5.101c0,0-1.538-2.416-0.35-4.482l-0.028-0.024
					c3.955,2.915,6.765,4.622,6.765,4.622c-5.906-3.637-13.834-11.121-18.36-15.594c1.384-1.111,15.614-0.504,15.614-0.504
					c-8.518-1.254-16.117,0-16.117,0c-1.884-1.873-3.058-3.109-3.058-3.109c0.544-0.538,1.177-1.031,1.882-1.461
					c3.816,0.814,6.326,0.551,6.326,0.551c-3.037-0.143-5.245-1.002-5.404-1.065c3.275-1.683,7.682-2.439,11.427-2.772
					c0.007,0.006,1.418,1.094,2.927,1.598c0,0-1.164-0.698-2.127-1.661c3.854-0.287,6.834-0.132,6.834-0.132
					c-4.854-0.424-8.812-0.176-11.967,0.361c1.571-3.266,4.357-4.65,4.357-4.65c-2.391,0.888-4.281,3.716-4.904,4.742
					c-2.098,0.395-3.822,0.911-5.193,1.431c2.636-5.783,7.558-8.223,7.558-8.223c-4.993,1.844-8.69,8.686-8.69,8.686
					c-2.139,0.952-3.125,1.799-3.125,1.799c-0.389-1.78,0.119-4.266,0.916-6.717c0.014,0.006,4.296,0.55,4.296-2.302
					c0,0-0.821,2.708-4.14,1.826c1.402-4.094,3.521-7.936,3.521-7.936c-1.305,1.523-2.307,3.339-3.069,5.188
					c-1.147-1.294-1.468-3.424-1.468-3.424c-0.425,1.282,0.848,3.189,1.309,3.819c-0.604,1.535-1.051,3.069-1.375,4.455l0.001-0.011
					c-3.042-0.784-5.372-6.219-5.372-6.219c0,3.251,5.197,7.004,5.197,7.004l0,0c-0.561,2.622-0.684,4.542-0.684,4.542
					c-1.617,0.056-3.102,0.177-4.463,0.348l0.045-0.005c0,0-3.174-4.829-6.257-4.829c0,0,4.066,1.656,5.367,4.949
					c-3.068,0.447-5.448,1.134-7.241,1.833c-0.004-0.007-1.041-1.456-2.498-0.727c0,0,1.599-0.082,1.837,0.995
					c-2.716,1.152-3.853,2.257-3.853,2.257c5.828-4.484,16.541-4.055,16.541-4.055c-0.436,0.813-0.83,1.633-1.186,2.451
					c-0.005,0.006-8.913,4.456-12.329,9.443c0,0,4.753-5.182,12.015-8.699l0.01-0.027c-0.852,2.089-1.467,4.192-1.914,6.229
					l0.041-0.194c-5.201,2.908-7.586,8.171-7.586,8.171c3.576-5.842,7.426-7.42,7.426-7.42l0.04-0.19
					c-0.509,2.411-0.772,4.72-0.895,6.77l0.006-0.138c0,0-2.315,2.004-3.37,4.742c0,0,2.176-3.458,3.328-3.968l0.01-0.196
					c-0.235,4.639,0.248,7.862,0.248,7.862C122.807,59.429,129.238,49.61,129.238,49.61z M120.021,50.223
					c0,1.666-2.37,2.371-2.37,2.371c2.41-0.619,3.11-2.508,3.11-2.508L120.021,50.223z"/>
				<path fill="#9DCB3B" d="M124.698,38.071c0.378,1.415,1.551,2.857,2.669,3.974c1.192,1.19,2.316,2.016,2.342,2.033l0.072,0.051
					l-0.018,0.087c-0.553,2.581-0.679,4.5-0.682,4.518l-0.006,0.126l-0.127,0.006c-1.535,0.057-3.033,0.172-4.45,0.354
					c0,0-0.019-0.131-0.028-0.211c-0.029,0.063-0.062,0.143-0.062,0.143c-0.014-0.029-0.861-1.3-2.083-2.521
					c-0.911-0.909-2.027-1.792-3.171-2.112c0.754,0.401,1.895,1.099,2.899,2.101c0.693,0.692,1.321,1.535,1.711,2.521l0.065,0.165
					l-0.174,0.024c-1.686,0.246-3.275,0.578-4.744,1.002c0.354-0.086,0.711-0.167,1.082-0.24c0,0,0.115-0.024,0.147-0.035l0,0h0.019
					l0,0c0.041-0.006,0.434-0.08,0.434-0.08s0.009,0.052,0.02,0.103c0.009-0.023,0.02-0.041,0.02-0.041l0.026-0.074l0.079-0.018
					c4.087-0.727,7.654-0.589,7.688-0.589l0.226,0.011l-0.107,0.195c-0.416,0.773-0.812,1.591-1.182,2.44l-0.02,0.044l-0.045,0.023
					c-0.078,0.04-6.632,3.351-10.594,7.393c2.046-1.837,5.626-4.708,10.154-6.9c0,0-0.025,0.029-0.045,0.052
					c0.02,0.006,0.247,0.103,0.247,0.103c-0.788,1.93-1.431,4.014-1.909,6.202c0,0-0.072-0.018-0.145-0.035
					c-1.982,1.133-3.549,2.617-4.724,4.002c2.237-2.422,4.124-3.373,4.491-3.54c0.012-0.057,0.026-0.119,0.026-0.119l0.273,0.056
					c-0.256,1.214-0.456,2.469-0.613,3.74c0.466-2.919,1.157-5.406,1.829-7.335c0,0,0.01-0.023,0.018-0.051l0,0l0.112-0.316
					l0.264,0.099c0,0-0.05,0.148-0.069,0.194c0.459,0.044,0.872,0.234,1.227,0.579c-0.031-0.03-0.063-0.063-0.096-0.098
					c-0.576-0.578-1.156-0.83-1.162-0.836l-0.121-0.044l0.047-0.126c1.287-3.517,2.596-5.538,2.611-5.555l0.099-0.155l0.122,0.138
					c0.775,0.893,1.613,1.815,2.494,2.732c0,0-0.09,0.085-0.147,0.137c0.073-0.023,0.16-0.052,0.16-0.052
					c-0.01,0.074-0.831,6.208,1.118,12.666c-0.824-3.189-1.64-7.879-0.842-12.141c0,0,0.018,0.053,0.026,0.092
					c0.022-0.021,0.19-0.188,0.19-0.188c0.21,0.218,0.424,0.436,0.642,0.646c1.475,1.479,3.073,2.967,4.763,4.444
					c0,0-0.096,0.109-0.145,0.166c0.051,1.164,0.328,6.311,1.333,10.017c-0.331-2.034-0.846-5.59-1.196-9.822
					c-0.049-0.04-0.131-0.114-0.131-0.114l0.184-0.212c2.062,1.798,4.283,3.585,6.598,5.313c0,0-0.061,0.087-0.109,0.15
					c0.059-0.023,0.119-0.052,0.119-0.052c-0.004,0.035-0.324,2.818,0.496,4.289c-0.359-0.911-0.701-2.387,0.079-3.75
					c0,0,0.018,0.075,0.028,0.131c0.031-0.045,0.145-0.194,0.145-0.2c-2.113-1.735-4.438-3.785-6.97-6.144l-0.124-0.115l0,0
					c-1.535-1.438-3.11-2.95-4.678-4.502l-0.112-0.114l0.122-0.098c0.971-0.772,7.77-0.743,12.105-0.641
					c-6.863-0.515-12.436,0.379-12.501,0.39l-0.069,0.012l-0.052-0.052c-0.132-0.132-0.263-0.265-0.386-0.389
					c-1.639-1.633-2.661-2.709-2.673-2.715l-0.093-0.104l0.094-0.097c0.532-0.533,1.174-1.031,1.908-1.478l0.048-0.028l0.055,0.012
					c1.45,0.303,2.713,0.458,3.721,0.527c-1.637-0.298-2.714-0.717-2.879-0.78l-0.286-0.114l0.273-0.137
					c2.768-1.426,6.631-2.364,11.48-2.788l0.055-0.007l0.039,0.035c0.015,0.005,0.697,0.532,1.606,1.013
					c-0.318-0.246-0.663-0.544-0.987-0.87l-0.218-0.212l0.306-0.023c0.22-0.017,0.439-0.035,0.653-0.046
					c-2.012,0.058-3.936,0.241-5.755,0.551l-0.266,0.045l0.117-0.246c0.227-0.469,0.48-0.905,0.747-1.299
					c-0.46,0.6-0.821,1.156-1.046,1.528l-0.033,0.058l-0.061,0.011c-1.863,0.344-3.604,0.824-5.17,1.419l-0.318,0.121l0.143-0.309
					c1.35-2.967,3.314-5.068,4.912-6.414c-3.423,2.657-5.77,6.952-5.799,7.003l-0.021,0.045l-0.043,0.017
					c-2.091,0.922-3.081,1.764-3.09,1.77l-0.178,0.155l-0.048-0.229c-0.345-1.575-0.035-3.867,0.917-6.792l0.039-0.104l0.111,0.012
					c0.098,0.012,2.4,0.281,3.529-0.715c0.162-0.149,0.283-0.321,0.382-0.504c-0.148,0.194-0.333,0.39-0.564,0.567
					c-0.841,0.648-1.931,0.802-3.243,0.452l-0.145-0.039l0.05-0.138c0.878-2.571,2.048-5.062,2.794-6.551
					c-0.776,1.122-1.475,2.422-2.084,3.894l-0.083,0.206l-0.149-0.167c-0.652-0.738-1.041-1.717-1.258-2.456
					c0.207,1.082,1.01,2.261,1.314,2.679l0.047,0.063l-0.03,0.069c-0.536,1.362-0.994,2.852-1.367,4.431l-0.03,0.132l-0.139-0.034
					c-0.842-0.217-1.631-0.773-2.326-1.471C126.182,40.809,125.209,39.083,124.698,38.071z M114.648,50.234
					c0.311,0.068,0.655,0.194,0.904,0.446c0.146,0.149,0.258,0.332,0.312,0.573c0.139-0.051,0.272-0.109,0.412-0.154
					c-0.019-0.029-0.091-0.121-0.214-0.246C115.798,50.589,115.294,50.205,114.648,50.234z M120.16,50.165
					c0.002,0.03,0,0.063,0,0.063c0,0.304-0.074,0.584-0.195,0.825c0.275-0.303,0.451-0.59,0.555-0.779
					c-0.023,0.005-0.327,0.058-0.327,0.058S120.178,50.245,120.16,50.165z M128.432,57.009c0.092,0.167,0.169,0.337,0.238,0.515
					C128.601,57.335,128.521,57.163,128.432,57.009z M121.859,68.679c0.852-1.139,1.53-1.849,2.014-2.102
					c0.003-0.057,0.006-0.113,0.006-0.113s0.093,0,0.176,0.004c0.01-0.137,0.018-0.28,0.031-0.422
					C123.844,66.268,122.795,67.259,121.859,68.679z M137.826,56.877c0.176,0.177,0.383,0.383,0.469,0.469
					c0.832-0.55,1.938-0.854,3.116-0.991C139.755,56.51,138.37,56.768,137.826,56.877z M142.875,56.247
					c1.472-0.035,2.923,0.103,3.993,0.246C145.648,56.229,144.232,56.184,142.875,56.247z M142.459,61.12
					c0.105,0.092,0.143,0.126,0.23,0.206c0.023-0.034,0.045-0.063,0.08-0.092c0.146-0.136,0.42-0.239,0.771-0.309
					C143.057,60.995,142.686,61.068,142.459,61.12z M145.62,60.742c0.002,0,0.008,0,0.008,0S145.622,60.742,145.62,60.742z
					 M146.119,60.742c0.049,0,0.1,0,0.145,0C146.215,60.742,146.168,60.742,146.119,60.742z"/>
			</g>
		</g>
	</g>
</g>
</svg>
